<svg width="110" height="110" viewBox="0 0 110 110" fill="none" xmlns="http://www.w3.org/2000/svg">
<path d="M42.4444 88.83C41.421 85.8203 40.7126 83.2043 40.339 81.0543C37.7904 66.3855 41.7909 48.8176 43.7415 44.6159C45.3306 41.1936 46.8928 39.5298 48.1394 39.9321C49.3559 40.3242 49.681 42.4969 49.0314 45.8929C48.3307 49.5567 47.4514 54.0997 47.4514 54.0997L46.6414 53.9428C46.6414 53.9428 47.5205 49.4009 48.2212 45.738C48.8705 42.3429 48.3767 40.8754 47.8863 40.7173C47.4575 40.5788 46.196 41.2883 44.4897 44.9635C42.8086 48.5845 38.6096 66.2816 41.1519 80.913C41.5182 83.0209 42.2157 85.5952 43.2254 88.5641L42.4444 88.83Z" fill="#3AFF78"/>
<path d="M52.9788 50.0894L52.1736 49.91C52.1962 49.8082 54.4369 39.707 54.0518 37.2996C53.9626 36.7431 53.7401 36.0524 53.1858 35.9226C52.6854 35.8045 52.0651 36.1666 51.7786 36.5689C50.1236 38.8925 49.3213 42.2474 49.3135 42.281L48.5103 42.0924C48.544 41.9488 49.3558 38.5484 51.1067 36.0903C51.5513 35.4663 52.497 34.9147 53.3741 35.1193C53.926 35.2486 54.6328 35.7092 54.8663 37.1693C55.2763 39.7312 53.0728 49.6677 52.9788 50.0894Z" fill="#3AFF78"/>
<path d="M58.0237 46.9543L57.2353 46.7116C57.2637 46.619 60.0833 37.4353 60.1805 34.7559C60.2463 32.9479 59.8163 32.5085 59.6283 32.4036C59.3208 32.232 58.8584 32.4847 58.61 32.6507C56.7744 33.8763 55.0632 39.6033 54.5586 41.7066L53.7564 41.5144C53.8335 41.1928 55.6728 33.6199 58.1518 31.9645C59.0485 31.3658 59.6684 31.4811 60.0304 31.6832C60.7377 32.0781 61.0656 33.122 61.005 34.786C60.9037 37.5733 58.1412 46.5726 58.0237 46.9543Z" fill="#3AFF78"/>
<path d="M59.5041 55.0432C59.3956 52.3327 60.7171 49.2736 61.9949 46.3152C63.1403 43.6636 64.3246 40.9217 64.4181 38.5397C64.4503 37.7222 64.322 37.1788 64.0749 37.0859C63.3809 36.8241 61.3179 38.6786 59.8067 40.547L59.1654 40.0283C62.4273 35.9932 63.9701 36.1649 64.3652 36.3137C65.3169 36.6714 65.2608 38.102 65.2426 38.5719C65.1429 41.1076 63.9277 43.9213 62.7523 46.6424C61.511 49.516 60.2276 52.4875 60.3285 55.0102L59.5041 55.0432Z" fill="#3AFF78"/>
<path d="M65.3902 88.6133C63.4818 85.2993 60.6145 71.1559 60.5092 68.314C60.3985 65.3263 60.9485 62.7565 64.0272 59.1815L64.0745 59.1348C66.6365 56.9826 67.5297 55.8595 68.7659 54.3049C69.412 53.4925 70.1447 52.5715 71.2471 51.3312C71.6612 50.8651 71.8309 50.4637 71.7248 50.2008C71.5943 49.8772 71.0357 49.6394 70.2671 49.5803C68.8663 49.4721 67.049 49.9799 66.4322 51.0152C66.4037 51.0626 66.3707 51.1206 66.3325 51.1875C65.7044 52.2884 63.7925 55.6386 59.2279 55.7379C55.0068 55.8298 53.6025 63.9607 53.5888 64.0429L52.7751 63.9076C52.8354 63.5448 54.308 55.0199 59.2102 54.9131C63.3075 54.824 65.0451 51.7791 65.616 50.7786C65.6571 50.7065 65.6928 50.6442 65.7232 50.593C66.5334 49.2328 68.6998 48.6333 70.3305 48.7577C71.463 48.8449 72.2297 49.2477 72.4899 49.892C72.6524 50.2944 72.6755 50.9659 71.8637 51.8793C70.776 53.1027 70.0512 54.0143 69.4118 54.8185C68.1496 56.4055 67.2367 57.5534 64.6307 59.745C61.7346 63.1169 61.2281 65.4308 61.3336 68.2834C61.3844 69.6528 62.142 73.937 63.0583 78.0368C64.19 83.0993 65.3005 86.8043 66.1051 88.2018L65.3902 88.6133Z" fill="#3AFF78"/>
<path d="M28.9032 84.2142L28.137 83.908C28.1613 83.8473 30.6271 77.7425 35.7885 70.498C40.5557 63.8072 48.668 54.7375 60.2431 49.5254C70.2511 44.4639 72.1186 45.3802 74.4835 46.5394C74.8729 46.7304 75.2752 46.9278 75.7302 47.1003C77.9849 47.9559 83.6866 49.6035 87.9276 46.4317L88.4218 47.0924C83.8537 50.5098 77.8198 48.7758 75.4374 47.8716C74.9468 47.6854 74.5265 47.4794 74.1204 47.2802C71.9613 46.2217 70.2562 45.3857 60.5987 50.2695C49.183 55.4103 41.1802 64.3567 36.4739 70.958C31.3644 78.125 28.9271 84.1543 28.9032 84.2142Z" fill="#3AFF78"/>
<path d="M77.5929 48.5386C77.5892 48.5386 77.5859 48.5386 77.5822 48.5386L77.5832 47.7136C77.5865 47.7136 77.5897 47.7136 77.5926 47.7136C81.3887 47.7136 82.5915 44.7042 82.9597 43.1455C82.0896 43.4326 80.6394 43.591 78.6258 43.6177C74.1498 43.6771 72.9107 46.2519 72.8602 46.3614L72.1085 46.0217C72.1662 45.8927 73.585 42.8596 78.615 42.7927C82.5762 42.7402 83.1335 42.1666 83.1555 42.1422C83.2839 41.9982 83.4877 41.955 83.6636 42.0354C83.8395 42.1156 83.9415 42.2982 83.9174 42.4901C83.8403 43.1091 83.0064 48.5385 77.5929 48.5386Z" fill="#3AFF78"/>
<path d="M86.5281 56.2855L86.3807 56.0611C86.3785 56.058 85.8522 55.292 83.0697 54.2484C79.7761 53.0131 79.752 48.7955 79.7525 48.6165L80.5775 48.6187C80.5775 48.6568 80.606 52.4433 83.3592 53.476C85.065 54.1157 86.0061 54.6731 86.5187 55.0671C86.8764 53.5242 87.4643 49.6973 84.8059 48.71L85.0932 47.9365C88.2917 49.1246 87.8822 53.5386 87.1361 55.9595L87.0577 56.2139L86.5281 56.2855Z" fill="#3AFF78"/>
<path d="M87.9057 47.265L87.7786 47.1474C87.7386 47.1103 86.7989 46.2194 86.8505 44.5896C86.9109 42.6727 88.2781 40.6094 90.9143 38.4569L90.9363 38.44C93.2792 36.7774 93.3823 35.6516 93.3791 35.4428L93.3737 35.0851L94.0924 34.9602L94.2086 35.312C94.5089 36.3024 95.8901 41.4077 93.5988 44.6498C92.4579 46.2635 90.6006 47.1408 88.0783 47.2571L87.9057 47.265ZM91.4253 39.1047C88.3912 41.5852 87.711 43.4703 87.675 44.6156C87.6449 45.5681 88.0373 46.1788 88.2328 46.4224C90.389 46.2849 91.967 45.5288 92.9249 44.1736C94.4769 41.9775 94.1087 38.6633 93.7354 36.8326C93.3498 37.4548 92.6569 38.2288 91.4253 39.1047Z" fill="#3AFF78"/>
<path d="M19.0937 50.1233L19.9702 47.4609C20.0775 47.1357 20.2051 46.8638 20.3537 46.6453C20.5022 46.4268 20.6632 46.2579 20.837 46.1383C21.0106 46.0188 21.1936 45.9477 21.3862 45.925C21.5785 45.9022 21.7714 45.9227 21.9648 45.9865C22.2815 46.0909 22.5261 46.2821 22.6983 46.5602C22.91 46.3754 23.1427 46.2625 23.3966 46.221C23.6506 46.1799 23.9158 46.2046 24.192 46.2956C24.4238 46.3718 24.6204 46.4796 24.7818 46.6187C24.9435 46.758 25.0644 46.9286 25.1451 47.1307C25.2258 47.3328 25.2622 47.5662 25.254 47.831C25.2458 48.0958 25.1878 48.3917 25.0801 48.7191L24.0775 51.7641L19.0937 50.1233ZM22.0116 47.7018C22.0402 47.6146 22.0715 47.5307 22.1051 47.4499C22.0159 47.2627 21.8842 47.1404 21.7098 47.0829C21.5292 47.0236 21.3662 47.0481 21.2207 47.157C21.0752 47.2658 20.9578 47.4562 20.8683 47.7282L20.3163 49.4055L21.3397 49.7425L22.0116 47.7018ZM24.2084 48.4038C24.2978 48.1317 24.3075 47.9058 24.2372 47.726C24.1668 47.546 24.0254 47.4211 23.8127 47.3512C23.6001 47.2812 23.4111 47.2973 23.2456 47.3994C23.08 47.5017 22.9524 47.6888 22.8628 47.9607L22.1847 50.0206L23.5303 50.4636L24.2084 48.4038Z" fill="#3AFF78"/>
<path d="M24.2178 52.0419L18.816 50.2635L19.7614 47.3921C19.8749 47.048 20.0131 46.7551 20.1719 46.5215C20.3351 46.2815 20.5169 46.0917 20.7124 45.9571C20.9149 45.8176 21.1329 45.7334 21.3605 45.7066C21.5838 45.68 21.8105 45.7039 22.0338 45.7776C22.3203 45.872 22.5583 46.03 22.7437 46.249C22.9351 46.1219 23.142 46.0397 23.3613 46.0038C23.6497 45.9571 23.9522 45.9848 24.2611 46.0867C24.519 46.1714 24.7426 46.2944 24.9256 46.4521C25.1133 46.6137 25.2559 46.8146 25.3496 47.0491C25.4412 47.2787 25.4831 47.544 25.4741 47.8378C25.4653 48.1222 25.4031 48.4418 25.2892 48.7878L24.2178 52.0419ZM19.3716 49.9832L23.9375 51.4863L24.8714 48.6503C24.9719 48.3443 25.0268 48.0663 25.0342 47.8241C25.0415 47.5913 25.0101 47.3854 24.9409 47.2123C24.8728 47.0418 24.7739 46.9022 24.6384 46.7853C24.4994 46.6657 24.3263 46.5713 24.1236 46.5047C23.8825 46.4249 23.6498 46.4027 23.4319 46.4381C23.2175 46.4731 23.0248 46.5673 22.8432 46.7259L22.648 46.8964L22.5114 46.676C22.366 46.4412 22.1646 46.284 21.896 46.1955C21.7341 46.142 21.5718 46.124 21.4122 46.1435C21.2541 46.1622 21.1069 46.2196 20.9619 46.3195C20.8116 46.4229 20.6682 46.5743 20.5358 46.769C20.3999 46.9688 20.2799 47.2247 20.1793 47.5298L19.3716 49.9832ZM23.6706 50.7414L21.907 50.1608L22.654 47.8919C22.7598 47.5706 22.92 47.3421 23.1302 47.2122C23.3527 47.075 23.6055 47.0512 23.8816 47.1423C24.1585 47.2333 24.3471 47.4027 24.4422 47.6458C24.5312 47.8735 24.523 48.1517 24.4175 48.4725L23.6706 50.7414ZM22.4627 49.8804L23.3903 50.1858L23.9996 48.335C24.0723 48.114 24.0833 47.9361 24.0324 47.8061C23.9862 47.6878 23.8945 47.6097 23.7441 47.5601C23.5933 47.5107 23.4711 47.519 23.3613 47.5866C23.2418 47.6604 23.1444 47.8095 23.0719 48.0296L22.4627 49.8804ZM21.48 50.0204L20.0387 49.5457L20.6595 47.6595C20.7645 47.3403 20.9051 47.1183 21.0892 46.9808C21.2918 46.8291 21.53 46.7923 21.7787 46.8738C22.0116 46.9506 22.1882 47.1126 22.3038 47.3552L22.346 47.4437L22.3084 47.5342C22.277 47.6101 22.2476 47.6888 22.2208 47.7704L21.48 50.0204ZM20.5941 49.2653L21.1997 49.4647L21.8028 47.633C21.8216 47.5758 21.8415 47.5198 21.8623 47.4652C21.805 47.378 21.7332 47.3222 21.641 47.2918C21.5296 47.2552 21.4402 47.2678 21.3527 47.3331C21.2448 47.4138 21.1521 47.5699 21.0773 47.797L20.5941 49.2653Z" fill="#3AFF78"/>
<path d="M21.7899 42.8385L23.9013 38.9006L24.7236 39.3416L23.1152 42.3416L24.0383 42.8366L25.4627 40.1796L26.2348 40.5936L24.8105 43.2505L26.0974 43.9405L27.7391 40.8784L28.5586 41.3178L26.4142 45.3177L21.7899 42.8385Z" fill="#3AFF78"/>
<path d="M26.5041 45.6156L21.4921 42.9284L23.8113 38.6028L25.0214 39.2516L23.4131 42.2516L23.9483 42.5387L25.3727 39.8818L26.5326 40.5036L25.1083 43.1606L26.0074 43.6426L27.6491 40.5806L28.8564 41.2278L26.5041 45.6156ZM22.0878 42.7485L26.3242 45.0199L28.2607 41.4077L27.829 41.1762L26.1874 44.2383L24.5127 43.3405L25.9369 40.6835L25.5526 40.4774L24.1282 43.1344L22.8174 42.4316L24.4258 39.4315L23.9913 39.1984L22.0878 42.7485Z" fill="#3AFF78"/>
<path d="M27.2275 38.4728C26.9334 38.2421 26.7027 37.9714 26.5354 37.6607C26.368 37.3503 26.2732 37.0162 26.251 36.6587C26.2285 36.3012 26.2828 35.9285 26.4139 35.5403C26.545 35.1524 26.761 34.7665 27.0622 34.3827C27.326 34.0465 27.6021 33.7647 27.8906 33.5371C28.1786 33.3095 28.4867 33.1298 28.8152 32.9978L29.1464 33.8807C29.0421 33.9157 28.9347 33.9655 28.8238 34.0308C28.7129 34.0961 28.6028 34.1718 28.4937 34.2583C28.3844 34.3447 28.2785 34.4391 28.1752 34.5416C28.072 34.644 27.9769 34.7508 27.8897 34.8618C27.6797 35.1293 27.5255 35.3937 27.427 35.6551C27.3286 35.9163 27.2824 36.1654 27.2887 36.402C27.2948 36.639 27.3509 36.8593 27.4568 37.0633C27.5626 37.2674 27.7144 37.4467 27.9115 37.6015C28.1156 37.7617 28.3335 37.8702 28.565 37.9269C28.7967 37.9834 29.0322 37.9869 29.2716 37.9373C29.5111 37.8876 29.7489 37.7843 29.985 37.6265C30.2211 37.4691 30.4441 37.2567 30.6541 36.9888C30.7493 36.8674 30.8353 36.7401 30.9117 36.6065C30.9879 36.4729 31.0547 36.3382 31.1116 36.2023C31.1685 36.0663 31.2162 35.9293 31.2547 35.7917C31.293 35.6539 31.3219 35.5201 31.3412 35.3904L32.2777 35.5023C32.2452 35.841 32.1539 36.1902 32.0033 36.5502C31.8531 36.9102 31.6474 37.2565 31.3862 37.5893C31.0532 38.0136 30.7059 38.3427 30.3445 38.5768C29.9829 38.8108 29.6215 38.9594 29.2602 39.0228C28.8987 39.0863 28.5449 39.0696 28.1986 38.9727C27.8521 38.8758 27.5284 38.7092 27.2275 38.4728Z" fill="#3AFF78"/>
<path d="M28.8355 39.2801C28.6002 39.2802 28.3674 39.2482 28.1394 39.1845C27.7665 39.0801 27.414 38.8989 27.0917 38.6457C26.775 38.3973 26.5227 38.101 26.3417 37.7649C26.1598 37.4277 26.0555 37.0601 26.0315 36.6721C26.0072 36.2882 26.0657 35.8837 26.2055 35.4698C26.3439 35.0597 26.574 34.6483 26.8891 34.2467C27.1625 33.8984 27.4536 33.6015 27.7543 33.3642C28.0572 33.1248 28.3866 32.9328 28.7331 32.7935L28.9421 32.7095L29.4325 34.0165L29.2165 34.089C29.1266 34.1193 29.0319 34.1634 28.9354 34.2202C28.8329 34.2805 28.7303 34.3513 28.6304 34.4305C28.5288 34.5109 28.4278 34.6008 28.3302 34.6976C28.2342 34.7928 28.1443 34.8936 28.0628 34.9974C27.8674 35.2462 27.7228 35.4934 27.6329 35.7325C27.5449 35.966 27.5032 36.1891 27.5087 36.3959C27.5138 36.5981 27.5621 36.7884 27.6521 36.9618C27.7427 37.1365 27.8756 37.2934 28.0474 37.4284C28.2257 37.5683 28.4174 37.664 28.6174 37.713C28.8157 37.7613 29.021 37.7642 29.227 37.7218C29.438 37.678 29.6519 37.5843 29.8628 37.4434C30.0787 37.2995 30.2866 37.1009 30.481 36.8529C30.5698 36.7397 30.6505 36.6199 30.7207 36.4972C30.7925 36.3714 30.8558 36.2434 30.9087 36.1172C30.9616 35.9907 31.0069 35.8611 31.0428 35.7322C31.0786 35.604 31.1057 35.4779 31.1235 35.3577L31.1551 35.1463L32.5172 35.3092L32.4967 35.5231C32.4622 35.8826 32.3645 36.2567 32.2064 36.6349C32.0492 37.0113 31.8315 37.3782 31.5593 37.725C31.2128 38.1664 30.8444 38.515 30.464 38.7612C30.0793 39.0103 29.687 39.1712 29.2982 39.2394C29.1434 39.2665 28.9889 39.2801 28.8355 39.2801ZM28.691 33.2928C28.4584 33.4048 28.2359 33.5444 28.027 33.7094C27.7534 33.9254 27.4872 34.1974 27.2353 34.5183C26.951 34.8806 26.7448 35.248 26.6223 35.6105C26.501 35.9699 26.45 36.3179 26.4706 36.6447C26.4907 36.9688 26.5776 37.2753 26.729 37.5561C26.8812 37.8387 27.0945 38.0888 27.3632 38.2996C27.6398 38.5168 27.9409 38.6721 28.2579 38.7607C28.5707 38.8481 28.8953 38.8635 29.222 38.8059C29.5526 38.7481 29.8899 38.6087 30.225 38.392C30.5643 38.1721 30.8967 37.8563 31.2131 37.4532C31.4608 37.1377 31.6584 36.8052 31.8003 36.4653C31.91 36.2028 31.9869 35.9443 32.03 35.6942L31.5203 35.6332C31.5049 35.7048 31.487 35.7773 31.4668 35.8505C31.4257 35.9971 31.3745 36.1439 31.3145 36.2872C31.2547 36.4299 31.1834 36.574 31.1027 36.7154C31.0218 36.8569 30.9291 36.9944 30.8272 37.1244C30.604 37.4092 30.3617 37.6396 30.1071 37.8093C29.8491 37.9817 29.583 38.0972 29.3163 38.1525C29.0453 38.2087 28.775 38.2042 28.5129 38.1405C28.2516 38.0764 28.0036 37.9533 27.7756 37.7744C27.554 37.6004 27.3811 37.3952 27.2615 37.1644C27.1405 36.9314 27.0756 36.6767 27.0688 36.4075C27.0618 36.1438 27.1131 35.8643 27.2212 35.5774C27.327 35.2965 27.4936 35.0099 27.7167 34.7258C27.8093 34.6078 27.9115 34.4932 28.0203 34.3853C28.1296 34.2769 28.2429 34.176 28.3572 34.0855C28.4728 33.9938 28.5923 33.9115 28.7122 33.841C28.7635 33.8108 28.8148 33.7833 28.8657 33.7586L28.691 33.2928Z" fill="#3AFF78"/>
<path d="M31.8965 32.7986C31.6363 32.5001 31.4528 32.1789 31.3462 31.8354C31.2399 31.4918 31.2082 31.1447 31.2512 30.7938C31.2944 30.4431 31.412 30.0979 31.6043 29.758C31.7965 29.4184 32.0612 29.1014 32.3988 28.8073C32.7345 28.5146 33.0842 28.2961 33.4479 28.1514C33.8113 28.0065 34.1699 27.9367 34.5234 27.9419C34.8768 27.9472 35.2164 28.0258 35.5423 28.1784C35.8679 28.3308 36.161 28.5562 36.4212 28.8549C36.6831 29.1553 36.8682 29.4785 36.9769 29.8246C37.0855 30.1708 37.1196 30.5202 37.0787 30.8737C37.0377 31.227 36.922 31.5751 36.731 31.9181C36.5402 32.261 36.2768 32.5788 35.9411 32.8715C35.6036 33.1656 35.2525 33.3834 34.8874 33.5248C34.5224 33.6664 34.1622 33.7334 33.8065 33.7255C33.4509 33.7179 33.1093 33.6365 32.7811 33.4814C32.4531 33.3266 32.1582 33.099 31.8965 32.7986ZM32.6987 32.0994C32.8767 32.3035 33.0736 32.4557 33.2896 32.5552C33.5055 32.6549 33.7295 32.7055 33.9609 32.707C34.1924 32.7089 34.4241 32.6631 34.6567 32.5705C34.8891 32.4778 35.1099 32.3403 35.319 32.1578C35.5282 31.9755 35.6947 31.7757 35.8182 31.5581C35.9419 31.3405 36.0183 31.1174 36.0473 30.8886C36.0765 30.6597 36.0568 30.4312 35.9886 30.2029C35.9202 29.9746 35.797 29.7583 35.6191 29.5542C35.4411 29.35 35.2446 29.1992 35.0292 29.1021C34.8137 29.0047 34.5921 28.9568 34.3645 28.9577C34.1368 28.9588 33.9081 29.0073 33.6788 29.1033C33.4493 29.1994 33.23 29.3387 33.0208 29.521C32.8116 29.7034 32.6436 29.9017 32.5171 30.1157C32.3906 30.3299 32.311 30.5501 32.278 30.7764C32.2449 31.0024 32.2625 31.2285 32.3302 31.4544C32.3979 31.6803 32.5209 31.8953 32.6987 32.0994Z" fill="#3AFF78"/>
<path d="M33.8618 33.946C33.8417 33.946 33.8215 33.9458 33.8014 33.9454C33.4167 33.937 33.0416 33.8479 32.6869 33.6802C32.3328 33.5131 32.0109 33.2651 31.7304 32.943C31.4513 32.6227 31.2512 32.272 31.1358 31.9006C31.0208 31.5285 30.986 31.1472 31.0326 30.767C31.0792 30.3888 31.207 30.0129 31.4126 29.6496C31.6163 29.2894 31.8995 28.9502 32.2541 28.6414C32.6066 28.3339 32.9808 28.1003 33.3663 27.9469C33.7549 27.7921 34.1447 27.7173 34.5263 27.7219C34.9097 27.7275 35.2829 27.814 35.6353 27.979C35.9875 28.1439 36.3078 28.3899 36.5868 28.7103C36.8675 29.0322 37.0693 29.3849 37.1865 29.7586C37.3041 30.1332 37.3412 30.5169 37.297 30.899C37.2528 31.2796 37.127 31.6585 36.9231 32.0251C36.7207 32.3884 36.439 32.7289 36.0854 33.0372C35.73 33.3469 35.3536 33.58 34.9666 33.7298C34.5968 33.8734 34.2254 33.946 33.8618 33.946ZM34.4867 28.1615C34.1743 28.1615 33.8524 28.2268 33.5292 28.3557C33.1899 28.4906 32.8582 28.6983 32.5432 28.9731C32.2262 29.2491 31.9747 29.5497 31.7955 29.8663C31.6186 30.1792 31.5087 30.5002 31.4692 30.8206C31.4303 31.1386 31.4596 31.4581 31.5561 31.7703C31.6532 32.0828 31.8233 32.3801 32.0621 32.6539C32.3026 32.9298 32.576 33.1413 32.8747 33.2823C33.1734 33.4234 33.4884 33.4985 33.8109 33.5055C34.1381 33.5119 34.4712 33.4501 34.8075 33.3196C35.147 33.1882 35.4796 32.9815 35.7963 32.7056C36.1114 32.4308 36.3611 32.1298 36.5385 31.811C36.7143 31.4952 36.8225 31.1713 36.8598 30.8483C36.897 30.5279 36.8656 30.2056 36.7668 29.8905C36.6678 29.575 36.4957 29.2752 36.2552 28.9994C36.0166 28.7255 35.7452 28.5163 35.4487 28.3776C35.153 28.2391 34.8405 28.1666 34.5199 28.1618C34.5089 28.1616 34.4977 28.1615 34.4867 28.1615ZM33.9741 32.927C33.969 32.927 33.964 32.927 33.9589 32.9269C33.6972 32.9253 33.4407 32.8674 33.1971 32.7547C32.9545 32.643 32.7308 32.4711 32.5326 32.2439C32.3345 32.0167 32.1956 31.7721 32.1192 31.5174C32.0425 31.2612 32.0225 31.0011 32.0601 30.7445C32.0971 30.4907 32.1871 30.2415 32.3274 30.0038C32.4653 29.7704 32.6499 29.5521 32.8759 29.3551C33.1021 29.1581 33.3435 29.005 33.5935 28.9003C33.8485 28.7935 34.1074 28.7389 34.3632 28.7377C34.3657 28.7377 34.3682 28.7377 34.3706 28.7377C34.6269 28.7377 34.8787 28.7927 35.1194 28.9015C35.3626 29.0111 35.5865 29.182 35.7847 29.4096C35.9826 29.6365 36.1221 29.8823 36.1992 30.1397C36.276 30.3971 36.2983 30.6584 36.2652 30.9165C36.2329 31.1723 36.1467 31.4248 36.0093 31.6667C35.8742 31.9045 35.6905 32.1255 35.4633 32.3236C35.2365 32.5214 34.9926 32.6732 34.738 32.7747C34.4843 32.8758 34.2273 32.927 33.9741 32.927ZM32.8643 31.9547C33.0212 32.1348 33.1952 32.2696 33.3814 32.3553C33.5679 32.4413 33.7631 32.4856 33.962 32.487C34.1634 32.4846 34.3694 32.4478 34.5751 32.366C34.7832 32.283 34.9848 32.1572 35.1741 31.992C35.364 31.8265 35.5161 31.644 35.6266 31.4494C35.7356 31.2577 35.8036 31.0597 35.8288 30.8609C35.8539 30.6639 35.8368 30.4637 35.7775 30.2658C35.7186 30.0689 35.6094 29.8781 35.453 29.6987C35.2967 29.5192 35.1236 29.386 34.9386 29.3026C34.7533 29.2187 34.5596 29.1674 34.3652 29.1776C34.1674 29.1785 33.9649 29.2218 33.7635 29.3061C33.557 29.3927 33.3556 29.5208 33.1652 29.6868C32.9746 29.8529 32.8202 30.0348 32.7063 30.2276C32.5952 30.4157 32.5241 30.6111 32.4954 30.8081C32.4673 31.0007 32.4825 31.1968 32.5406 31.3911C32.5989 31.5854 32.7077 31.775 32.8643 31.9547Z" fill="#3AFF78"/>
<path d="M36.9873 25.2819L37.9149 24.7605L40.5145 25.4939L41.239 22.8917L42.1666 22.3701L44.738 26.9437L43.8105 27.4651L41.9612 24.1761L41.199 26.7113L38.6372 26.0452L40.4863 29.334L39.5587 29.8557L36.9873 25.2819Z" fill="#3AFF78"/>
<path d="M39.4746 30.1553L36.6875 25.198L37.8865 24.5239L40.3616 25.2223L41.0514 22.7446L42.2504 22.0706L45.0374 27.0277L43.7263 27.7647L42.0228 24.7349L41.3486 26.9776L39.0822 26.3882L40.7857 29.4179L39.4746 30.1553ZM37.2867 25.3659L39.6424 29.5561L40.1865 29.2501L38.1917 25.7021L41.0491 26.445L41.8992 23.6174L43.8942 27.1656L44.4383 26.8598L42.0825 22.6697L41.4263 23.0387L40.667 25.7656L37.9429 24.9971L37.2867 25.3659Z" fill="#3AFF78"/>
<path d="M44.9604 21.221L49.1982 19.8054L49.4939 20.6907L46.2654 21.769L46.5972 22.7625L49.4564 21.8074L49.734 22.6383L46.8748 23.5935L47.3374 24.9785L50.6329 23.8778L50.9274 24.7597L46.6226 26.1977L44.9604 21.221Z" fill="#3AFF78"/>
<path d="M46.4835 26.4761L44.6819 21.082L49.337 19.5271L49.7721 20.8297L46.5436 21.908L46.7361 22.4842L49.5952 21.529L50.0122 22.7773L47.153 23.7325L47.4762 24.7001L50.7718 23.5995L51.2056 24.8987L46.4835 26.4761ZM45.2386 21.36L46.7614 25.9194L50.6489 24.6208L50.4938 24.1562L47.1982 25.2568L46.5963 23.4546L49.4554 22.4993L49.3173 22.0858L46.4581 23.0409L45.9869 21.63L49.2154 20.5518L49.0591 20.0838L45.2386 21.36Z" fill="#3AFF78"/>
<path d="M58.4929 18.3127L61.2591 18.3287C61.662 18.331 62.0109 18.3768 62.3057 18.4657C62.6008 18.5547 62.8449 18.6821 63.0386 18.8476C63.2323 19.0133 63.3761 19.215 63.4699 19.4528C63.5637 19.6904 63.6097 19.9583 63.608 20.2559C63.6062 20.5357 63.5578 20.7939 63.4623 21.0305C63.3671 21.2671 63.2219 21.4718 63.0275 21.644C62.8329 21.8164 62.5875 21.9502 62.2917 22.0459C61.9957 22.1415 61.6463 22.1881 61.2433 22.1858L59.5347 22.1724L59.5266 23.5657L58.4625 23.5594L58.4929 18.3127ZM61.269 21.263C61.4703 21.264 61.6466 21.2409 61.7979 21.1937C61.9494 21.1464 62.0763 21.079 62.1786 20.9912C62.2809 20.9034 62.3576 20.7963 62.4086 20.6703C62.4598 20.544 62.4858 20.4037 62.4866 20.2493C62.4885 19.9383 62.3886 19.6955 62.1869 19.5208C61.9855 19.3463 61.6834 19.2577 61.2805 19.2552L59.5517 19.2453L59.54 21.2527L61.269 21.263Z" fill="#3AFF78"/>
<path d="M59.7453 23.7868L58.2411 23.778L58.2744 18.0913L61.2604 18.1086C61.6821 18.1109 62.0551 18.1602 62.369 18.2549C62.6918 18.3522 62.965 18.4953 63.1814 18.6801C63.4022 18.869 63.5681 19.1017 63.6745 19.3719C63.7784 19.6352 63.83 19.9331 63.8278 20.2571C63.8262 20.5632 63.7717 20.851 63.6664 21.1125C63.5587 21.38 63.3928 21.6142 63.1734 21.8085C62.9572 22 62.6835 22.1502 62.3594 22.2551C62.0425 22.3574 61.6649 22.4156 61.2419 22.4056L59.7533 22.394L59.7453 23.7868ZM58.6837 23.3405L59.3081 23.3442L59.3161 21.9506L61.2449 21.9657C61.619 21.9637 61.9517 21.9243 62.224 21.8364C62.4899 21.7504 62.7112 21.6302 62.8817 21.4791C63.0496 21.3305 63.1763 21.1519 63.2582 20.9482C63.3428 20.7383 63.3863 20.5049 63.3879 20.2545C63.3896 19.9866 63.3482 19.7441 63.2652 19.5333C63.1841 19.3279 63.0633 19.1581 62.8954 19.0146C62.726 18.8697 62.506 18.7557 62.242 18.6762C61.9684 18.5936 61.6372 18.5507 61.2578 18.5485L58.7116 18.5339L58.6837 23.3405ZM61.2822 21.4829C61.2774 21.4829 61.2725 21.4829 61.268 21.4828L59.3188 21.4713L59.333 19.0239L61.2819 19.0351C61.7366 19.0378 62.0897 19.1453 62.3312 19.3545C62.5825 19.5723 62.709 19.8737 62.7066 20.2505C62.7058 20.4322 62.6739 20.6012 62.6124 20.753C62.5482 20.9113 62.4504 21.0476 62.322 21.1579C62.1974 21.2648 62.0433 21.3474 61.8634 21.4035C61.695 21.4562 61.4995 21.4829 61.2822 21.4829ZM61.2704 21.0429C61.46 21.0404 61.6037 21.0237 61.7323 20.9835C61.8545 20.9454 61.9565 20.8917 62.0352 20.8241C62.1112 20.759 62.1666 20.6817 62.2047 20.5875C62.2452 20.4878 62.2659 20.3736 62.2667 20.2479C62.2681 20.0021 62.195 19.8187 62.043 19.6869C61.883 19.5485 61.6262 19.4772 61.2792 19.475L59.7702 19.4664L59.7614 21.0339L61.2704 21.0429Z" fill="#3AFF78"/>
<path d="M66.2333 18.6404L70.6284 19.4446L70.4605 20.3625L67.1122 19.7498L66.9237 20.7802L69.8889 21.3226L69.7313 22.1845L66.766 21.642L66.5031 23.0784L69.9209 23.7036L69.7536 24.6184L65.2892 23.8016L66.2333 18.6404Z" fill="#3AFF78"/>
<path d="M69.9302 24.8744L65.0331 23.9784L66.0566 18.3843L70.8841 19.2677L70.637 20.6185L67.2887 20.0058L67.1794 20.6033L70.1448 21.1457L69.9079 22.4404L66.9425 21.8979L66.7588 22.9015L70.1767 23.5267L69.9302 24.8744ZM65.545 23.6247L69.5768 24.3623L69.6649 23.8804L66.247 23.2552L66.5891 21.386L69.5545 21.9284L69.6329 21.4994L66.6675 20.957L66.9353 19.4937L70.2836 20.1064L70.3722 19.6214L66.41 18.8964L65.545 23.6247Z" fill="#3AFF78"/>
<path d="M74.9307 20.7859L75.988 21.1784L76.541 26.9805L75.4931 26.5914L75.4072 25.6177L72.5338 24.5512L71.8456 25.2373L70.7946 24.8471L74.9307 20.7859ZM75.3185 24.6503L75.0844 22.021L73.2195 23.871L75.3185 24.6503Z" fill="#3AFF78"/>
<path d="M76.7932 27.3088L75.2861 26.7491L75.2001 25.7756L72.5893 24.8064L71.9012 25.4926L70.3933 24.9328L74.8763 20.531L76.1941 21.0202L76.7932 27.3088ZM75.7002 26.4336L76.2889 26.6522L75.7821 21.3365L74.9853 21.0407L71.1957 24.7614L71.79 24.982L72.4781 24.2959L75.6143 25.4598L75.7002 26.4336ZM75.5686 24.9777L72.8202 23.9574L75.2619 21.5349L75.5686 24.9777ZM73.6189 23.7847L75.0685 24.3227L74.9069 22.507L73.6189 23.7847Z" fill="#3AFF78"/>
<path d="M78.8318 25.1789C79.0226 24.8579 79.2612 24.5941 79.5477 24.3881C79.8343 24.1823 80.1533 24.0452 80.505 23.9771C80.8567 23.9088 81.2332 23.9147 81.6348 23.9947C82.0364 24.0746 82.4469 24.2392 82.8663 24.4886C83.2336 24.7069 83.5488 24.9445 83.8117 25.2009C84.0745 25.4574 84.2924 25.7401 84.4656 26.0486L83.6326 26.4907C83.5846 26.3918 83.5211 26.2915 83.4422 26.19C83.3633 26.0884 83.2741 25.9891 83.1741 25.8921C83.0742 25.7948 82.967 25.7019 82.852 25.6126C82.7371 25.5235 82.619 25.4428 82.4979 25.3709C82.2055 25.197 81.9234 25.0781 81.6516 25.0142C81.3798 24.9501 81.127 24.9365 80.8929 24.9731C80.659 25.0097 80.4475 25.0938 80.259 25.225C80.0703 25.3563 79.9119 25.5298 79.7838 25.745C79.6511 25.9683 79.5716 26.1982 79.5453 26.4352C79.519 26.6721 79.5458 26.9061 79.626 27.1373C79.7059 27.3683 79.8392 27.5908 80.0257 27.8046C80.2124 28.0183 80.4519 28.2122 80.7444 28.3861C80.8772 28.4651 81.0146 28.5336 81.1568 28.5921C81.2991 28.6509 81.4413 28.6995 81.5835 28.7385C81.7256 28.7774 81.8674 28.8071 82.0089 28.8274C82.1506 28.8478 82.2868 28.8592 82.4182 28.8617L82.4277 29.8049C82.0877 29.8162 81.7295 29.7704 81.3531 29.6677C80.9767 29.5651 80.6069 29.4056 80.2433 29.1895C79.7796 28.9138 79.4086 28.6117 79.13 28.2834C78.8514 27.9551 78.6573 27.6158 78.5479 27.2656C78.4383 26.9155 78.4096 26.5624 78.4609 26.2064C78.5124 25.8504 78.636 25.5079 78.8318 25.1789Z" fill="#3AFF78"/>
<path d="M82.3278 30.0266C81.9991 30.0266 81.6521 29.9774 81.295 29.88C80.9021 29.7729 80.5105 29.6042 80.131 29.3787C79.649 29.0922 79.2558 28.7717 78.9623 28.4258C78.6655 28.0761 78.4555 27.7078 78.3379 27.3312C78.2192 26.9518 78.1872 26.5628 78.2431 26.175C78.2987 25.7917 78.433 25.4188 78.6427 25.0666C78.8482 24.7208 79.1095 24.4324 79.4194 24.2096C79.7306 23.9859 80.0819 23.835 80.463 23.7611C80.8411 23.6881 81.2498 23.694 81.6776 23.779C82.1017 23.8633 82.5394 24.0385 82.9788 24.2996C83.3588 24.5254 83.6907 24.7757 83.9652 25.0435C84.2415 25.313 84.4744 25.615 84.6573 25.941L84.7676 26.1374L83.5339 26.792L83.4345 26.5865C83.3937 26.5024 83.3379 26.4144 83.2683 26.3251C83.1966 26.2324 83.1133 26.14 83.0207 26.0499C82.9275 25.9591 82.8252 25.8705 82.717 25.7864C82.6095 25.703 82.4981 25.6269 82.3856 25.5602C82.1135 25.3984 81.8495 25.2868 81.6011 25.2284C81.3589 25.1713 81.1322 25.1583 80.9268 25.1905C80.7272 25.2218 80.5446 25.2942 80.3846 25.4056C80.2229 25.5183 80.0843 25.6703 79.9729 25.8576C79.8568 26.0526 79.7868 26.2552 79.7639 26.4596C79.7414 26.6626 79.765 26.8664 79.8337 27.0654C79.9041 27.2687 80.0247 27.4688 80.1915 27.6599C80.362 27.8552 80.586 28.036 80.8569 28.1971C80.9786 28.2695 81.1078 28.3341 81.2404 28.3887C81.3726 28.4432 81.5074 28.4896 81.6417 28.5264C81.7743 28.5627 81.9086 28.5908 82.0399 28.6096C82.1721 28.6287 82.3007 28.6394 82.4223 28.6418L82.6358 28.646L82.6498 30.0176L82.435 30.0249C82.3995 30.026 82.3638 30.0266 82.3278 30.0266ZM81.0063 24.1503C80.8475 24.1503 80.6939 24.1645 80.5468 24.1931C80.2285 24.2549 79.9355 24.3805 79.6761 24.5669C79.4156 24.7541 79.1951 24.9978 79.0208 25.2913C78.8409 25.5936 78.7257 25.9122 78.6787 26.238C78.6322 26.56 78.6588 26.8836 78.7579 27.2C78.8578 27.5201 79.0394 27.8367 79.2977 28.1411C79.5598 28.4498 79.9157 28.7389 80.3558 29.0005C80.7009 29.2057 81.0559 29.3587 81.4107 29.4554C81.6857 29.5305 81.9521 29.5735 82.2054 29.5841L82.2003 29.0706C82.1269 29.0644 82.0525 29.0559 81.9774 29.0452C81.828 29.0237 81.6758 28.9919 81.5251 28.9507C81.3736 28.909 81.2214 28.8569 81.0726 28.7954C80.9203 28.7327 80.7721 28.6586 80.6319 28.5752C80.3209 28.3903 80.0612 28.1798 79.8601 27.9494C79.6557 27.7153 79.5072 27.4665 79.418 27.2094C79.3275 26.9481 79.2969 26.6795 79.3267 26.411C79.3563 26.144 79.4465 25.8822 79.5947 25.6327C79.7384 25.3911 79.9197 25.1932 80.1332 25.0445C80.3486 24.8946 80.5927 24.7975 80.8588 24.7557C81.1204 24.7153 81.404 24.7301 81.7021 24.8C81.994 24.8688 82.2996 24.9971 82.6103 25.1819C82.7382 25.2576 82.8649 25.3441 82.9868 25.4388C83.108 25.533 83.2226 25.6324 83.3274 25.7345C83.4348 25.8388 83.532 25.9468 83.6161 26.0554C83.6526 26.1024 83.6864 26.1495 83.7173 26.1966L84.1567 25.9634C84.0157 25.7471 83.8484 25.5443 83.658 25.3585C83.4082 25.1149 83.1042 24.886 82.7537 24.6777C82.3579 24.4423 81.9669 24.2851 81.5917 24.2105C81.39 24.1704 81.1945 24.1503 81.0063 24.1503Z" fill="#3AFF78"/>
<path d="M86.9564 27.322L90.3456 30.2334L89.7377 30.9413L87.1556 28.7233L86.473 29.5177L88.7598 31.4821L88.1888 32.1467L85.9021 30.1825L84.9506 31.2901L87.5862 33.5541L86.9802 34.2593L83.5376 31.302L86.9564 27.322Z" fill="#3AFF78"/>
<path d="M87.0037 34.5694L83.2276 31.3254L86.9331 27.0117L90.6561 30.2098L89.7615 31.2514L87.1794 29.0334L86.7835 29.4941L89.0702 31.4584L88.2128 32.4568L85.926 30.4926L85.2611 31.2664L87.8967 33.5305L87.0037 34.5694ZM83.8479 31.2784L86.957 33.949L87.2763 33.5775L84.6407 31.3134L85.8787 29.8722L88.1655 31.8364L88.4499 31.5054L86.1631 29.5411L87.1321 28.413L89.7142 30.631L90.0357 30.2568L86.9804 27.6321L83.8479 31.2784Z" fill="#3AFF78"/>
</svg>
