<svg width="164" height="164" viewBox="0 0 164 164" fill="none" xmlns="http://www.w3.org/2000/svg">
<path d="M63.281 132.438C61.7551 127.95 60.6991 124.05 60.1419 120.845C56.3422 98.975 62.3066 72.7828 65.2149 66.5185C67.584 61.4161 69.913 58.9355 71.7717 59.5353C73.5854 60.1199 74.0701 63.3592 73.1016 68.4224C72.0569 73.8847 70.7459 80.6579 70.7459 80.6579L69.5383 80.4241C69.5383 80.4241 70.849 73.6525 71.8936 68.1913C72.8617 63.1296 72.1254 60.9417 71.3943 60.706C70.7551 60.4994 68.8742 61.5573 66.3304 67.0366C63.8239 72.4353 57.5636 98.82 61.3539 120.634C61.9 123.777 62.94 127.615 64.4453 132.041L63.281 132.438Z" fill="#1E1E1E"/>
<path d="M78.9869 74.6786L77.7866 74.4111C77.8202 74.2594 81.1609 59.1995 80.5867 55.6102C80.4538 54.7806 80.1221 53.7508 79.2956 53.5572C78.5495 53.3812 77.6248 53.921 77.1976 54.5207C74.7302 57.9851 73.534 62.987 73.5224 63.037L72.3248 62.7558C72.3751 62.5418 73.5855 57.472 76.1958 53.8072C76.8587 52.8769 78.2686 52.0545 79.5763 52.3596C80.3991 52.5524 81.4529 53.2391 81.8011 55.416C82.4123 59.2355 79.1271 74.05 78.9869 74.6786Z" fill="#1E1E1E"/>
<path d="M86.5075 70.0044L85.3319 69.6425C85.3744 69.5046 89.5781 55.8124 89.723 51.8177C89.8211 49.1221 89.1801 48.467 88.8998 48.3107C88.4414 48.0548 87.7519 48.4316 87.3815 48.679C84.6449 50.5062 82.0936 59.0448 81.3412 62.1806L80.1453 61.8939C80.2602 61.4145 83.0025 50.124 86.6985 47.656C88.0354 46.7634 88.9595 46.9353 89.4992 47.2366C90.5538 47.8254 91.0427 49.3817 90.9522 51.8625C90.8013 56.0182 86.6826 69.4353 86.5075 70.0044Z" fill="#1E1E1E"/>
<path d="M88.715 82.0644C88.5532 78.0233 90.5236 73.4624 92.4286 69.0517C94.1363 65.0985 95.902 61.0105 96.0413 57.4592C96.0894 56.2404 95.898 55.4302 95.5296 55.2917C94.495 54.9013 91.4192 57.6662 89.1662 60.4519L88.2101 59.6786C93.0732 53.6625 95.3735 53.9186 95.9625 54.1404C97.3814 54.6737 97.2978 56.8066 97.2705 57.5073C97.122 61.2878 95.3102 65.4827 93.5577 69.5396C91.7071 73.8238 89.7936 78.2541 89.9442 82.0152L88.715 82.0644Z" fill="#1E1E1E"/>
<path d="M97.491 132.114C94.6458 127.173 90.3708 106.087 90.2139 101.85C90.0489 97.3956 90.8689 93.5643 95.459 88.2343L95.5295 88.1646C99.3492 84.9559 100.681 83.2815 102.524 80.9636C103.487 79.7524 104.58 78.3793 106.223 76.5301C106.841 75.8352 107.094 75.2368 106.935 74.8448C106.741 74.3624 105.908 74.0078 104.762 73.9197C102.674 73.7584 99.9642 74.5155 99.0445 76.059C99.0021 76.1297 98.9528 76.2162 98.896 76.3159C97.9594 77.9573 95.1091 82.9521 88.3036 83.1001C82.0103 83.2372 79.9166 95.3596 79.8962 95.4822L78.683 95.2804C78.7729 94.7394 80.9685 82.0296 88.2772 81.8705C94.386 81.7376 96.9765 77.1979 97.8277 75.7063C97.889 75.5988 97.9422 75.5059 97.9875 75.4296C99.1955 73.4016 102.425 72.5077 104.857 72.6933C106.545 72.8233 107.688 73.4238 108.076 74.3844C108.318 74.9844 108.353 75.9855 107.142 77.3473C105.521 79.1712 104.44 80.5304 103.487 81.7293C101.605 84.0955 100.244 85.8069 96.3587 89.0743C92.0409 94.1016 91.2857 97.5514 91.4431 101.804C91.5188 103.846 92.6483 110.233 94.0144 116.346C95.7016 123.893 97.3573 129.417 98.5568 131.501L97.491 132.114Z" fill="#1E1E1E"/>
<path d="M43.091 125.556L41.9486 125.099C41.9849 125.009 45.6611 115.907 53.3564 105.106C60.4637 95.1308 72.5585 81.6086 89.8159 73.8379C104.737 66.2917 107.521 67.6578 111.047 69.3861C111.628 69.6708 112.227 69.9651 112.906 70.2223C116.267 71.498 124.768 73.9544 131.091 69.2256L131.828 70.2105C125.017 75.3055 116.021 72.7204 112.469 71.3722C111.738 71.0946 111.111 70.7875 110.506 70.4906C107.287 68.9124 104.745 67.666 90.3461 74.9473C73.3263 82.6118 61.3948 95.95 54.3782 105.792C46.7603 116.477 43.1266 125.466 43.091 125.556Z" fill="#1E1E1E"/>
<path d="M115.683 72.3662C115.678 72.3662 115.673 72.3662 115.667 72.3662L115.669 71.1362C115.674 71.1362 115.678 71.1362 115.683 71.1362C121.342 71.1362 123.136 66.6494 123.685 64.3256C122.387 64.7536 120.225 64.9898 117.223 65.0297C110.55 65.1182 108.702 68.9569 108.627 69.1203L107.506 68.6138C107.592 68.4214 109.708 63.8994 117.207 63.7997C123.113 63.7214 123.944 62.8662 123.976 62.8297C124.168 62.6151 124.472 62.5507 124.734 62.6706C124.996 62.7901 125.148 63.0623 125.112 63.3484C124.997 64.2713 123.754 72.366 115.683 72.3662Z" fill="#1E1E1E"/>
<path d="M129.005 83.9163L128.785 83.5818C128.782 83.5772 127.997 82.435 123.849 80.8791C118.939 79.0375 118.903 72.7494 118.903 72.4825L120.133 72.4857C120.133 72.5426 120.176 78.1879 124.281 79.7276C126.824 80.6813 128.227 81.5123 128.991 82.0997C129.525 79.7995 130.401 74.0939 126.438 72.6219L126.866 71.4688C131.635 73.2401 131.024 79.8209 129.912 83.4302L129.795 83.8096L129.005 83.9163Z" fill="#1E1E1E"/>
<path d="M131.059 70.4676L130.869 70.2922C130.81 70.237 129.409 68.9087 129.486 66.4789C129.576 63.6209 131.614 60.5447 135.544 57.3356L135.577 57.3104C139.07 54.8316 139.224 53.1531 139.219 52.8418L139.211 52.3085L140.283 52.1223L140.456 52.6468C140.904 54.1235 142.963 61.7349 139.547 66.5686C137.846 68.9746 135.077 70.2824 131.316 70.4558L131.059 70.4676ZM136.306 58.3013C131.783 61.9996 130.769 64.8101 130.715 66.5176C130.67 67.9377 131.255 68.8482 131.547 69.2114C134.761 69.0064 137.114 67.8791 138.542 65.8587C140.856 62.5845 140.307 57.6433 139.751 54.9138C139.176 55.8415 138.143 56.9955 136.306 58.3013Z" fill="#1E1E1E"/>
<path d="M28.4676 74.7295L29.7745 70.7601C29.9344 70.2752 30.1246 69.8698 30.3462 69.5441C30.5676 69.2184 30.8077 68.9665 31.0667 68.7881C31.3256 68.61 31.5984 68.5041 31.8855 68.4702C32.1722 68.4362 32.4599 68.4668 32.7482 68.5619C33.2204 68.7175 33.585 69.0025 33.8418 69.4171C34.1573 69.1417 34.5043 68.9733 34.8828 68.9115C35.2616 68.8502 35.657 68.887 36.0688 69.0228C36.4143 69.1363 36.7074 69.297 36.9481 69.5044C37.1891 69.712 37.3695 69.9665 37.4898 70.2678C37.6101 70.5691 37.6644 70.917 37.6522 71.3118C37.6399 71.7066 37.5535 72.1478 37.3929 72.6359L35.898 77.1757L28.4676 74.7295ZM32.818 71.1192C32.8607 70.9893 32.9073 70.8642 32.9574 70.7436C32.8244 70.4646 32.628 70.2822 32.368 70.1965C32.0987 70.108 31.8557 70.1447 31.6389 70.307C31.4219 70.4692 31.2469 70.7531 31.1134 71.1586L30.2904 73.6593L31.8163 74.1618L32.818 71.1192ZM36.0932 72.1658C36.2266 71.7602 36.241 71.4233 36.1361 71.1552C36.0312 70.887 35.8204 70.7008 35.5033 70.5965C35.1863 70.4922 34.9045 70.5162 34.6578 70.6684C34.4108 70.8209 34.2206 71.0998 34.0871 71.5052L33.0761 74.5764L35.0822 75.2368L36.0932 72.1658Z" fill="#1E1E1E"/>
<path d="M36.1068 77.5898L28.0532 74.9384L29.4628 70.6574C29.6319 70.1443 29.8379 69.7077 30.0748 69.3593C30.318 69.0016 30.5891 68.7185 30.8806 68.5179C31.1824 68.3099 31.5076 68.1844 31.8469 68.1443C32.1798 68.1047 32.5177 68.1403 32.8507 68.2502C33.2779 68.391 33.6326 68.6266 33.9091 68.9531C34.1944 68.7635 34.5029 68.641 34.8298 68.5876C35.2598 68.5179 35.7109 68.5591 36.1713 68.7111C36.5559 68.8374 36.8892 69.0208 37.1621 69.2558C37.442 69.4969 37.6546 69.7963 37.7943 70.1459C37.9308 70.4882 37.9933 70.8838 37.9799 71.3218C37.9667 71.7458 37.874 72.2223 37.7042 72.7382L36.1068 77.5898ZM28.8816 74.5204L35.6888 76.7613L37.0812 72.5332C37.2311 72.077 37.313 71.6626 37.324 71.3014C37.3348 70.9543 37.288 70.6474 37.1849 70.3893C37.0834 70.1351 36.9359 69.9269 36.7339 69.7527C36.5267 69.5743 36.2686 69.4336 35.9663 69.3343C35.607 69.2154 35.26 69.1821 34.9351 69.235C34.6154 69.2873 34.3281 69.4276 34.0575 69.664L33.7664 69.9183L33.5628 69.5897C33.346 69.2396 33.0457 69.0052 32.6453 68.8732C32.4038 68.7936 32.1618 68.7667 31.924 68.7958C31.6881 68.8236 31.4687 68.9093 31.2525 69.0582C31.0285 69.2124 30.8147 69.438 30.6173 69.7283C30.4147 70.0262 30.2357 70.4077 30.0858 70.8626L28.8816 74.5204ZM35.2911 75.6509L32.6617 74.7852L33.7754 71.4025C33.9331 70.9234 34.172 70.5827 34.4853 70.3891C34.817 70.1845 35.194 70.1491 35.6056 70.2848C36.0184 70.4206 36.2996 70.6732 36.4414 71.0356C36.5741 71.3751 36.5619 71.7899 36.4045 72.2682L35.2911 75.6509ZM33.4901 74.3672L34.873 74.8225L35.7815 72.0632C35.8898 71.7336 35.9063 71.4684 35.8304 71.2746C35.7615 71.0982 35.6248 70.9817 35.4006 70.9078C35.1757 70.8342 34.9936 70.8466 34.8298 70.9473C34.6516 71.0574 34.5065 71.2796 34.3984 71.6077L33.4901 74.3672ZM32.0251 74.5758L29.8762 73.8681L30.8017 71.056C30.9582 70.5801 31.1678 70.2492 31.4423 70.0442C31.7444 69.818 32.0995 69.7631 32.4703 69.8846C32.8176 69.9991 33.0809 70.2406 33.2533 70.6023L33.3161 70.7343L33.2601 70.8692C33.2132 70.9823 33.1694 71.0996 33.1295 71.2213L32.0251 74.5758ZM30.7042 73.4501L31.6071 73.7474L32.5063 71.0165C32.5344 70.9313 32.564 70.8478 32.595 70.7663C32.5095 70.6364 32.4024 70.5531 32.2651 70.5078C32.0989 70.4532 31.9656 70.472 31.8353 70.5693C31.6743 70.6896 31.5362 70.9224 31.4247 71.261L30.7042 73.4501Z" fill="#1E1E1E"/>
<path d="M32.4877 63.869L35.6356 57.998L36.8616 58.6555L34.4637 63.1283L35.8398 63.8662L37.9635 59.9049L39.1146 60.5221L36.9911 64.4834L38.9098 65.512L41.3574 60.9467L42.5792 61.6018L39.3821 67.5654L32.4877 63.869Z" fill="#1E1E1E"/>
<path d="M39.5165 68.0089L32.044 64.0026L35.5017 57.5535L37.3059 58.5208L34.908 62.9936L35.7059 63.4216L37.8296 59.4603L39.5589 60.3874L37.4354 64.3487L38.7759 65.0674L41.2235 60.5021L43.0235 61.4671L39.5165 68.0089ZM32.932 63.7343L39.2482 67.1208L42.1354 61.7353L41.4918 61.3902L39.0442 65.9555L36.5474 64.617L38.6708 60.6557L38.0979 60.3484L35.9742 64.3097L34.0199 63.2618L36.4178 58.7891L35.77 58.4415L32.932 63.7343Z" fill="#1E1E1E"/>
<path d="M40.5939 57.3593C40.1555 57.0154 39.8115 56.6118 39.5621 56.1485C39.3124 55.6857 39.1711 55.1876 39.1381 54.6547C39.1044 54.1215 39.1855 53.566 39.3809 52.9872C39.5763 52.4089 39.8984 51.8335 40.3474 51.2613C40.7408 50.7601 41.1524 50.3398 41.5824 50.0005C42.0119 49.6612 42.4713 49.3933 42.961 49.1965L43.4549 50.5128C43.2993 50.5651 43.1392 50.6393 42.9738 50.7366C42.8084 50.8339 42.6443 50.9468 42.4817 51.0758C42.3188 51.2047 42.1608 51.3454 42.0069 51.4982C41.8529 51.6509 41.7112 51.8101 41.5812 51.9756C41.2681 52.3744 41.0381 52.7686 40.8914 53.1584C40.7446 53.5478 40.6758 53.9191 40.6852 54.2719C40.6942 54.6252 40.7779 54.9537 40.9358 55.2578C41.0936 55.5621 41.3198 55.8294 41.6137 56.0602C41.918 56.2991 42.2429 56.4608 42.588 56.5453C42.9334 56.6296 43.2845 56.6348 43.6415 56.5609C43.9986 56.4868 44.3531 56.3327 44.7051 56.0975C45.057 55.8628 45.3896 55.5461 45.7027 55.1467C45.8446 54.9658 45.9727 54.776 46.0866 54.5768C46.2003 54.3776 46.2998 54.1768 46.3847 53.9742C46.4696 53.7714 46.5407 53.5672 46.5981 53.362C46.6552 53.1566 46.6982 52.957 46.7271 52.7636L48.1232 52.9306C48.0748 53.4355 47.9386 53.9562 47.7142 54.4929C47.4902 55.0296 47.1835 55.5459 46.7941 56.042C46.2976 56.6746 45.7799 57.1653 45.241 57.5142C44.7019 57.8632 44.1632 58.0848 43.6244 58.1793C43.0855 58.274 42.558 58.249 42.0417 58.1046C41.5252 57.9601 41.0425 57.7116 40.5939 57.3593Z" fill="#1E1E1E"/>
<path d="M42.991 58.563C42.6403 58.5632 42.2931 58.5156 41.9532 58.4205C41.3973 58.2649 40.8718 57.9946 40.3913 57.6173C39.919 57.2469 39.5429 56.8051 39.273 56.304C39.0019 55.8013 38.8464 55.2532 38.8105 54.6748C38.7743 54.1025 38.8616 53.4993 39.07 52.8823C39.2764 52.2709 39.6193 51.6575 40.0892 51.0587C40.4968 50.5394 40.9308 50.0967 41.3791 49.743C41.8307 49.386 42.3218 49.0998 42.8385 48.8922L43.15 48.7668L43.8811 50.7155L43.5592 50.8237C43.425 50.8687 43.2839 50.9346 43.14 51.0192C42.9872 51.1091 42.8343 51.2146 42.6853 51.3327C42.5338 51.4527 42.3832 51.5866 42.2377 51.7309C42.0946 51.8729 41.9606 52.0232 41.8391 52.178C41.5478 52.5489 41.3322 52.9175 41.1981 53.2738C41.0669 53.622 41.0047 53.9547 41.0129 54.263C41.0205 54.5645 41.0926 54.8482 41.2267 55.1066C41.3618 55.3671 41.56 55.6011 41.8161 55.8023C42.0819 56.0109 42.3678 56.1537 42.6659 56.2267C42.9616 56.2986 43.2677 56.303 43.5748 56.2397C43.8893 56.1745 44.2082 56.0347 44.5227 55.8247C44.8446 55.6101 45.1545 55.314 45.4444 54.9443C45.5767 54.7755 45.6971 54.5969 45.8018 54.414C45.9089 54.2264 46.0032 54.0356 46.082 53.8474C46.1609 53.6588 46.2284 53.4656 46.282 53.2734C46.3353 53.0823 46.3757 52.8943 46.4024 52.7151L46.4494 52.4L48.4802 52.6428L48.4495 52.9617C48.3981 53.4977 48.2526 54.0554 48.0167 54.6194C47.7825 55.1805 47.4578 55.7274 47.052 56.2445C46.5355 56.9026 45.9861 57.4223 45.419 57.7894C44.8454 58.1608 44.2607 58.4006 43.6809 58.5023C43.4501 58.5428 43.2198 58.563 42.991 58.563ZM42.7756 49.6365C42.4289 49.8035 42.0972 50.0117 41.7856 50.2577C41.3779 50.5796 40.9809 50.9852 40.6053 51.4637C40.1815 52.0038 39.874 52.5515 39.6914 53.0921C39.5106 53.6278 39.4346 54.1467 39.4652 54.634C39.4952 55.117 39.6247 55.5741 39.8506 55.9927C40.0774 56.4141 40.3955 56.7869 40.7961 57.1012C41.2085 57.4251 41.6573 57.6565 42.13 57.7886C42.5962 57.919 43.0803 57.942 43.5674 57.8561C44.0603 57.7698 44.5632 57.562 45.0626 57.2389C45.5685 56.9112 46.0642 56.4403 46.5359 55.8393C46.9052 55.3689 47.1997 54.8732 47.4113 54.3665C47.5749 53.9751 47.6896 53.5898 47.7539 53.2168L46.9939 53.1259C46.9709 53.2326 46.9443 53.3407 46.9141 53.4498C46.8528 53.6684 46.7765 53.8872 46.687 54.1008C46.5979 54.3137 46.4916 54.5285 46.3713 54.7393C46.2506 54.9503 46.1125 55.1553 45.9605 55.3491C45.6278 55.7737 45.2664 56.1172 44.8869 56.3703C44.5023 56.6273 44.1055 56.7995 43.7079 56.882C43.3039 56.9656 42.9009 56.959 42.5102 56.8639C42.1206 56.7685 41.7508 56.5849 41.4109 56.3182C41.0806 56.0588 40.8227 55.7529 40.6443 55.4087C40.464 55.0614 40.3673 54.6816 40.3571 54.2802C40.3466 53.887 40.4231 53.4704 40.5843 53.0426C40.742 52.6238 40.9905 52.1966 41.323 51.773C41.4611 51.597 41.6135 51.4262 41.7756 51.2653C41.9386 51.1037 42.1076 50.9534 42.2779 50.8184C42.4503 50.6817 42.6285 50.559 42.8072 50.4539C42.8837 50.4088 42.9602 50.3678 43.0361 50.331L42.7756 49.6365Z" fill="#1E1E1E"/>
<path d="M47.5543 48.8997C47.1663 48.4547 46.8929 47.9758 46.7339 47.4637C46.5754 46.9514 46.5281 46.4339 46.5922 45.9108C46.6566 45.3879 46.832 44.8732 47.1187 44.3665C47.4052 43.8602 47.7999 43.3875 48.3032 42.9491C48.8037 42.5127 49.325 42.187 49.8674 41.9712C50.4091 41.7551 50.9438 41.651 51.4707 41.6589C51.9976 41.6667 52.5039 41.784 52.9898 42.0114C53.4753 42.2386 53.9123 42.5747 54.3003 43.02C54.6907 43.4678 54.9667 43.9497 55.1287 44.4658C55.2907 44.9819 55.3415 45.5028 55.2804 46.0299C55.2194 46.5566 55.0468 47.0755 54.7621 47.587C54.4777 48.0981 54.0849 48.572 53.5844 49.0084C53.0813 49.4469 52.5578 49.7716 52.0135 49.9824C51.4693 50.1936 50.9322 50.2935 50.4019 50.2817C49.8718 50.2703 49.3625 50.1489 48.8732 49.9177C48.3841 49.6869 47.9445 49.3476 47.5543 48.8997ZM48.7503 47.8573C49.0157 48.1616 49.3092 48.3884 49.6313 48.5368C49.9532 48.6855 50.2872 48.761 50.6321 48.7632C50.9772 48.766 51.3228 48.6977 51.6695 48.5596C52.0161 48.4215 52.3452 48.2165 52.6569 47.9444C52.9688 47.6725 53.217 47.3746 53.4012 47.0503C53.5856 46.7258 53.6995 46.3933 53.7427 46.0521C53.7864 45.7108 53.757 45.3701 53.6553 45.0297C53.5534 44.6894 53.3696 44.3669 53.1043 44.0626C52.8391 43.7581 52.546 43.5333 52.2249 43.3885C51.9035 43.2434 51.5732 43.1719 51.2339 43.1733C50.8944 43.1749 50.5534 43.2472 50.2115 43.3903C49.8694 43.5337 49.5424 43.7413 49.2305 44.0132C48.9186 44.285 48.6682 44.5807 48.4796 44.8998C48.291 45.2191 48.1723 45.5474 48.1231 45.8848C48.0738 46.2217 48.1 46.5588 48.2009 46.8956C48.3018 47.2325 48.4852 47.553 48.7503 47.8573Z" fill="#1E1E1E"/>
<path d="M50.4847 50.6105C50.4547 50.6105 50.4246 50.6101 50.3946 50.6095C49.821 50.5971 49.2619 50.4642 48.733 50.2141C48.2051 49.9651 47.7252 49.5953 47.307 49.1151C46.8908 48.6376 46.5925 48.1147 46.4205 47.5609C46.2489 47.0062 46.1971 46.4376 46.2666 45.8709C46.336 45.3069 46.5266 44.7466 46.8331 44.2049C47.1368 43.6679 47.559 43.1622 48.0877 42.7018C48.6133 42.2434 49.1712 41.895 49.746 41.6664C50.3253 41.4356 50.9065 41.3241 51.4754 41.3309C52.047 41.3393 52.6033 41.4682 53.1289 41.7142C53.654 41.9601 54.1314 42.3268 54.5474 42.8045C54.9659 43.2844 55.2667 43.8103 55.4415 44.3674C55.6169 44.926 55.6721 45.4979 55.6063 46.0677C55.5404 46.635 55.3528 47.2 55.0487 47.7465C54.747 48.2882 54.327 48.7959 53.7999 49.2556C53.27 49.7172 52.7089 50.0648 52.1319 50.2882C51.5806 50.5022 51.0268 50.6105 50.4847 50.6105ZM51.4164 41.9863C50.9505 41.9863 50.4707 42.0836 49.9888 42.2758C49.4829 42.477 48.9884 42.7867 48.5188 43.1963C48.0461 43.6079 47.6711 44.0559 47.4041 44.528C47.1402 44.9944 46.9765 45.4731 46.9176 45.9508C46.8595 46.4248 46.9032 46.9013 47.0471 47.3667C47.1919 47.8326 47.4455 48.2758 47.8015 48.684C48.16 49.0954 48.5676 49.4107 49.013 49.6209C49.4583 49.8314 49.9279 49.9433 50.4088 49.9537C50.8967 49.9633 51.3932 49.8712 51.8947 49.6766C52.4008 49.4806 52.8966 49.1725 53.3689 48.7611C53.8386 48.3515 54.2109 47.9027 54.4754 47.4274C54.7374 46.9565 54.8988 46.4737 54.9544 45.992C55.0099 45.5143 54.9631 45.0339 54.8157 44.564C54.6682 44.0938 54.4115 43.6467 54.053 43.2355C53.6972 42.8271 53.2926 42.5152 52.8506 42.3084C52.4098 42.102 51.9439 41.9939 51.4658 41.9867C51.4494 41.9865 51.4328 41.9863 51.4164 41.9863ZM50.652 49.0912C50.6444 49.0912 50.637 49.0912 50.6294 49.091C50.2392 49.0886 49.8569 49.0023 49.4937 48.8344C49.132 48.6678 48.7984 48.4116 48.5029 48.0728C48.2077 47.7341 48.0005 47.3694 47.8865 46.9896C47.7722 46.6076 47.7424 46.2198 47.7985 45.8373C47.8537 45.4589 47.9878 45.0873 48.197 44.733C48.4026 44.385 48.6779 44.0595 49.0148 43.7658C49.352 43.4721 49.7119 43.2439 50.0847 43.0878C50.4649 42.9286 50.8508 42.8471 51.2322 42.8453C51.236 42.8453 51.2396 42.8453 51.2432 42.8453C51.6254 42.8453 52.0008 42.9274 52.3597 43.0896C52.7223 43.2529 53.056 43.5078 53.3515 43.8471C53.6466 44.1854 53.8546 44.5518 53.9695 44.9356C54.084 45.3194 54.1172 45.7089 54.068 46.0937C54.0197 46.4751 53.8912 46.8516 53.6864 47.2122C53.485 47.5667 53.2111 47.8963 52.8724 48.1916C52.5343 48.4864 52.1705 48.7129 51.791 48.8642C51.4128 49.015 51.0296 49.0912 50.652 49.0912ZM48.9974 47.6416C49.2315 47.9101 49.4909 48.1111 49.7684 48.2388C50.0465 48.3671 50.3375 48.4332 50.634 48.4352C50.9343 48.4316 51.2414 48.3767 51.5481 48.2548C51.8584 48.1311 52.1589 47.9435 52.4412 47.6973C52.7243 47.4504 52.9511 47.1784 53.1158 46.8883C53.2784 46.6024 53.3797 46.3073 53.4173 46.0108C53.4548 45.7171 53.4292 45.4186 53.3409 45.1236C53.253 44.8301 53.0902 44.5456 52.857 44.2781C52.624 44.0105 52.3659 43.8119 52.09 43.6876C51.8138 43.5624 51.5251 43.486 51.2352 43.5012C50.9403 43.5026 50.6384 43.567 50.3381 43.6928C50.0302 43.8219 49.7299 44.0129 49.4461 44.2603C49.162 44.508 48.9318 44.7792 48.762 45.0667C48.5962 45.3472 48.4903 45.6385 48.4475 45.9321C48.4057 46.2192 48.4283 46.5117 48.515 46.8014C48.6018 47.0911 48.764 47.3738 48.9974 47.6416Z" fill="#1E1E1E"/>
<path d="M55.1447 37.6928L56.5276 36.9154L60.4034 38.0089L61.4837 34.1291L62.8666 33.3516L66.7004 40.1704L65.3174 40.9478L62.5603 36.0442L61.424 39.8239L57.6045 38.8307L60.3614 43.7341L58.9784 44.5119L55.1447 37.6928Z" fill="#1E1E1E"/>
<path d="M58.8533 44.9586L54.6981 37.5678L56.4856 36.5628L60.1758 37.604L61.2042 33.91L62.9918 32.905L67.147 40.2956L65.1923 41.3945L62.6524 36.8773L61.6473 40.221L58.2684 39.3423L60.808 43.8593L58.8533 44.9586ZM55.5913 37.818L59.1036 44.0653L59.9148 43.6091L56.9407 38.3193L61.2008 39.427L62.4683 35.2113L65.4426 40.5012L66.2537 40.0454L62.7415 33.7983L61.7632 34.3484L60.6311 38.414L56.5697 37.2683L55.5913 37.818Z" fill="#1E1E1E"/>
<path d="M67.032 31.6388L73.3502 29.5283L73.791 30.8482L68.9777 32.4558L69.4724 33.937L73.7351 32.513L74.1489 33.7518L69.8862 35.176L70.5759 37.2408L75.4892 35.5998L75.9283 36.9147L69.5102 39.0586L67.032 31.6388Z" fill="#1E1E1E"/>
<path d="M69.3029 39.4736L66.6169 31.4315L73.5573 29.1133L74.2059 31.0554L69.3926 32.6629L69.6795 33.522L73.9422 32.098L74.5639 33.959L70.3011 35.3832L70.783 36.8258L75.6964 35.1848L76.3432 37.1219L69.3029 39.4736ZM67.4469 31.8459L69.7173 38.6436L75.5132 36.7075L75.282 36.0148L70.3686 37.6558L69.4711 34.9688L73.7338 33.5446L73.5278 32.928L69.2651 34.352L68.5626 32.2485L73.3759 30.641L73.1429 29.9433L67.4469 31.8459Z" fill="#1E1E1E"/>
<path d="M87.2077 27.3025L91.3317 27.3263C91.9325 27.3297 92.4526 27.398 92.8923 27.5305C93.3321 27.6632 93.696 27.8532 93.9849 28.0999C94.2736 28.3469 94.488 28.6476 94.6279 29.0021C94.7677 29.3565 94.8363 29.7559 94.8337 30.1995C94.8311 30.6167 94.7589 31.0017 94.6165 31.3544C94.4746 31.7072 94.2582 32.0123 93.9683 32.2691C93.6782 32.5262 93.3123 32.7256 92.8712 32.8683C92.43 33.0109 91.9091 33.0803 91.3083 33.0769L88.7608 33.0569L88.7488 35.1341L87.1623 35.1247L87.2077 27.3025ZM91.3465 31.701C91.6466 31.7026 91.9095 31.6681 92.1351 31.5977C92.3609 31.5272 92.5501 31.4267 92.7027 31.2958C92.8552 31.1649 92.9695 31.0053 93.0456 30.8173C93.1219 30.6291 93.1607 30.4199 93.1619 30.1897C93.1647 29.7261 93.0158 29.3641 92.7151 29.1036C92.4148 28.8434 91.9643 28.7113 91.3638 28.7077L88.7862 28.6928L88.7688 31.6858L91.3465 31.701Z" fill="#1E1E1E"/>
<path d="M89.0747 35.4641L86.8321 35.4509L86.8818 26.9727L91.3337 26.9985C91.9623 27.0019 92.5185 27.0754 92.9865 27.2165C93.4678 27.3616 93.875 27.575 94.1977 27.8505C94.5268 28.1322 94.7743 28.4791 94.9328 28.8819C95.0878 29.2745 95.1647 29.7185 95.1615 30.2016C95.1591 30.6581 95.0778 31.0871 94.9208 31.4771C94.7603 31.8758 94.5128 32.225 94.1857 32.5147C93.8634 32.8001 93.4554 33.0242 92.9721 33.1805C92.4997 33.3331 91.9367 33.4197 91.3061 33.4049L89.0867 33.3875L89.0747 35.4641ZM87.492 34.7987L88.4229 34.8043L88.4349 32.7265L91.3105 32.7491C91.8683 32.7461 92.3643 32.6872 92.7703 32.5563C93.1667 32.428 93.4966 32.2488 93.7509 32.0236C94.0011 31.802 94.1901 31.5357 94.3122 31.232C94.4384 30.9191 94.5032 30.5712 94.5056 30.1978C94.508 29.7984 94.4464 29.4369 94.3226 29.1226C94.2017 28.8163 94.0216 28.5632 93.7713 28.3492C93.5187 28.1332 93.1907 27.9632 92.7972 27.8447C92.3892 27.7216 91.8955 27.6575 91.3297 27.6543L87.5336 27.6325L87.492 34.7987ZM91.3662 32.0292C91.359 32.0292 91.3517 32.0292 91.3449 32.029L88.4389 32.012L88.4601 28.363L91.3658 28.3798C92.0436 28.3838 92.5701 28.544 92.9301 28.8559C93.3049 29.1806 93.4934 29.63 93.4898 30.1918C93.4886 30.4627 93.441 30.7147 93.3493 30.9409C93.2536 31.177 93.1079 31.3802 92.9165 31.5447C92.7307 31.7041 92.5009 31.8272 92.2326 31.9109C91.9816 31.9894 91.6901 32.0292 91.3662 32.0292ZM91.3485 31.3731C91.6312 31.3695 91.8454 31.3445 92.0372 31.2847C92.2194 31.2278 92.3715 31.1477 92.4889 31.047C92.6022 30.9499 92.6846 30.8346 92.7415 30.6943C92.802 30.5455 92.8328 30.3754 92.834 30.188C92.836 29.8214 92.7271 29.548 92.5005 29.3516C92.2618 29.1452 91.8791 29.0389 91.3618 29.0357L89.112 29.0229L89.0987 31.3597L91.3485 31.3731Z" fill="#1E1E1E"/>
<path d="M98.7483 27.791L105.301 28.99L105.051 30.3585L100.059 29.445L99.7775 30.9813L104.198 31.7899L103.963 33.075L99.5425 32.2662L99.1505 34.4077L104.246 35.3398L103.997 36.7037L97.3407 35.4859L98.7483 27.791Z" fill="#1E1E1E"/>
<path d="M104.26 37.0857L96.9588 35.7498L98.4847 27.4094L105.682 28.7265L105.314 30.7405L100.322 29.827L100.159 30.7179L104.58 31.5264L104.227 33.4567L99.8056 32.6479L99.5317 34.1442L104.628 35.0763L104.26 37.0857ZM97.722 35.2224L103.733 36.3221L103.864 35.6036L98.7686 34.6715L99.2787 31.8848L103.7 32.6934L103.817 32.0538L99.3956 31.2452L99.7948 29.0634L104.787 29.9769L104.919 29.2538L99.0116 28.173L97.722 35.2224Z" fill="#1E1E1E"/>
<path d="M111.716 30.9905L113.292 31.5756L114.117 40.2261L112.554 39.6459L112.426 38.1943L108.142 36.6042L107.116 37.6272L105.549 37.0454L111.716 30.9905ZM112.294 36.7519L111.945 32.8319L109.164 35.5902L112.294 36.7519Z" fill="#1E1E1E"/>
<path d="M114.492 40.7152L112.245 39.8808L112.117 38.4293L108.225 36.9843L107.199 38.0073L104.951 37.1727L111.634 30.6101L113.599 31.3394L114.492 40.7152ZM112.863 39.4103L113.74 39.7362L112.985 31.8111L111.797 31.37L106.147 36.9173L107.033 37.2462L108.059 36.2232L112.735 37.9585L112.863 39.4103ZM112.667 37.2398L108.569 35.7185L112.209 32.1068L112.667 37.2398ZM109.76 35.461L111.921 36.2632L111.68 33.5562L109.76 35.461Z" fill="#1E1E1E"/>
<path d="M117.532 37.5401C117.816 37.0614 118.172 36.6682 118.599 36.3611C119.026 36.0542 119.502 35.8498 120.026 35.7483C120.551 35.6464 121.112 35.6553 121.711 35.7746C122.31 35.8937 122.922 36.1391 123.547 36.5109C124.094 36.8364 124.564 37.1905 124.956 37.5729C125.348 37.9553 125.673 38.3767 125.931 38.8368L124.689 39.4958C124.618 39.3485 124.523 39.1989 124.405 39.0476C124.288 38.896 124.155 38.7481 124.006 38.6033C123.857 38.4584 123.697 38.3199 123.526 38.1867C123.354 38.0538 123.178 37.9335 122.998 37.8264C122.562 37.5671 122.141 37.3897 121.736 37.2945C121.331 37.199 120.954 37.1787 120.605 37.2332C120.256 37.2878 119.941 37.4132 119.66 37.6088C119.378 37.8045 119.142 38.0632 118.951 38.3841C118.753 38.717 118.635 39.0598 118.596 39.4131C118.556 39.7663 118.596 40.1152 118.716 40.4599C118.835 40.8043 119.034 41.136 119.312 41.4547C119.59 41.7734 119.947 42.0625 120.383 42.3218C120.581 42.4395 120.786 42.5416 120.998 42.6289C121.21 42.7165 121.422 42.789 121.634 42.8471C121.846 42.9051 122.057 42.9494 122.268 42.9796C122.48 43.01 122.683 43.027 122.879 43.0308L122.893 44.437C122.386 44.4538 121.852 44.3856 121.291 44.2324C120.73 44.0795 120.178 43.8416 119.636 43.5195C118.945 43.1085 118.392 42.6581 117.976 42.1686C117.561 41.6791 117.272 41.1732 117.108 40.6511C116.945 40.1292 116.902 39.6027 116.979 39.072C117.056 38.5413 117.24 38.0306 117.532 37.5401Z" fill="#1E1E1E"/>
<path d="M122.744 44.7672C122.254 44.7672 121.737 44.6937 121.204 44.5486C120.618 44.3888 120.034 44.1374 119.469 43.8013C118.75 43.374 118.164 42.8962 117.726 42.3805C117.284 41.8592 116.971 41.31 116.795 40.7485C116.618 40.1829 116.571 39.603 116.654 39.0248C116.737 38.4532 116.937 37.8973 117.25 37.3722C117.556 36.8567 117.946 36.4267 118.408 36.0945C118.872 35.761 119.395 35.536 119.964 35.4259C120.527 35.317 121.137 35.3258 121.775 35.4525C122.407 35.5782 123.059 35.8395 123.714 36.2287C124.281 36.5654 124.776 36.9386 125.185 37.3378C125.597 37.7395 125.944 38.1898 126.217 38.6759L126.381 38.9687L124.542 39.9447L124.394 39.6382C124.333 39.5129 124.25 39.3817 124.146 39.2486C124.039 39.1103 123.915 38.9725 123.777 38.8382C123.638 38.7029 123.485 38.5708 123.324 38.4454C123.164 38.3211 122.998 38.2076 122.83 38.1081C122.424 37.8669 122.031 37.7005 121.66 37.6134C121.299 37.5283 120.961 37.5089 120.655 37.557C120.358 37.6036 120.085 37.7115 119.847 37.8777C119.606 38.0456 119.399 38.2723 119.233 38.5515C119.06 38.8422 118.955 39.1443 118.921 39.449C118.888 39.7517 118.923 40.0556 119.025 40.3523C119.13 40.6554 119.31 40.9537 119.559 41.2386C119.813 41.5298 120.147 41.7993 120.551 42.0395C120.732 42.1474 120.925 42.2437 121.123 42.3252C121.32 42.4065 121.521 42.4756 121.721 42.5304C121.919 42.5847 122.119 42.6265 122.315 42.6545C122.512 42.683 122.703 42.699 122.885 42.7026L123.203 42.7088L123.224 44.7538L122.904 44.7646C122.851 44.7662 122.798 44.7672 122.744 44.7672ZM120.774 36.0061C120.537 36.0061 120.308 36.0273 120.088 36.0699C119.614 36.162 119.177 36.3494 118.79 36.6273C118.402 36.9063 118.073 37.2697 117.813 37.7073C117.545 38.158 117.373 38.633 117.303 39.1187C117.234 39.5988 117.274 40.0812 117.421 40.5529C117.57 41.0302 117.841 41.5022 118.226 41.9561C118.617 42.4163 119.148 42.8473 119.804 43.2373C120.318 43.5432 120.848 43.7714 121.377 43.9156C121.787 44.0275 122.184 44.0915 122.561 44.1074L122.554 43.3418C122.444 43.3326 122.333 43.32 122.221 43.304C121.999 43.2719 121.772 43.2245 121.547 43.163C121.321 43.101 121.094 43.0233 120.872 42.9316C120.645 42.8381 120.424 42.7276 120.215 42.6033C119.752 42.3276 119.365 42.0137 119.065 41.6702C118.76 41.3212 118.539 40.9503 118.406 40.5669C118.271 40.1773 118.225 39.7769 118.27 39.3765C118.314 38.9786 118.448 38.5882 118.669 38.2162C118.883 37.8561 119.154 37.561 119.472 37.3394C119.793 37.1157 120.157 36.971 120.554 36.9087C120.944 36.8485 121.367 36.8705 121.811 36.9748C122.246 37.0773 122.702 37.2687 123.165 37.5442C123.356 37.6571 123.545 37.786 123.726 37.9271C123.907 38.0677 124.078 38.2158 124.234 38.368C124.394 38.5235 124.539 38.6845 124.665 38.8464C124.719 38.9165 124.769 38.9868 124.816 39.057L125.471 38.7093C125.26 38.3868 125.011 38.0845 124.727 37.8074C124.355 37.4443 123.901 37.1029 123.379 36.7924C122.789 36.4415 122.206 36.2071 121.646 36.0959C121.346 36.0361 121.054 36.0061 120.774 36.0061Z" fill="#1E1E1E"/>
<path d="M129.646 40.7346L134.698 45.0753L133.792 46.1307L129.942 42.8239L128.925 44.0082L132.334 46.9369L131.483 47.9278L128.074 44.9994L126.655 46.6506L130.584 50.0261L129.681 51.0775L124.548 46.6684L129.646 40.7346Z" fill="#1E1E1E"/>
<path d="M129.716 51.54L124.086 46.7035L129.61 40.2722L135.161 45.0403L133.827 46.5932L129.978 43.2864L129.387 43.9732L132.797 46.9019L131.518 48.3903L128.109 45.4619L127.118 46.6156L131.047 49.9911L129.716 51.54ZM125.011 46.6334L129.646 50.6151L130.122 50.0612L126.193 46.6857L128.038 44.537L131.448 47.4654L131.872 46.972L128.462 44.0433L129.907 42.3615L133.757 45.6683L134.236 45.1103L129.681 41.1971L125.011 46.6334Z" fill="#1E1E1E"/>
</svg>
