<svg width="1860" height="2471" viewBox="0 0 1860 2471" fill="none" xmlns="http://www.w3.org/2000/svg">
<path d="M1512.82 1586.28C1507.39 1588.74 1501.79 1596.23 1500.87 1602.11C1498.3 1618.26 1496.69 1634.85 1497.38 1651.16C1500.69 1729.68 1504.8 1808.17 1508.83 1886.65C1509.25 1894.82 1510.49 1903.03 1512.19 1911.05C1514.88 1923.85 1520.15 1926.68 1533 1923.18C1546.9 1919.4 1556.02 1910.17 1561.29 1897.28C1572.28 1870.44 1572.27 1843.21 1558.84 1817.63C1542.14 1785.84 1538.44 1751.85 1535.86 1716.99C1533.41 1683.86 1528.36 1650.94 1524.59 1617.9C1524.24 1614.94 1524.86 1611.88 1525.02 1608.86C1526.28 1608.67 1527.55 1608.49 1528.81 1608.3C1531.25 1613.99 1534.75 1619.47 1535.91 1625.41C1539.56 1644.22 1542.27 1663.2 1545.48 1682.1C1551.42 1717.11 1554.28 1753.04 1564.45 1786.78C1572.67 1814.04 1586.9 1839.37 1589.83 1868.66C1591.33 1883.5 1600.81 1887.14 1614.81 1880.96C1636.6 1871.35 1649.41 1850.85 1647.83 1825.75C1645.95 1795.88 1634.67 1769.19 1618.86 1743.95C1610.44 1730.5 1603.34 1716.12 1596.84 1701.62C1581.73 1667.95 1567.31 1633.99 1552.68 1600.1C1550.72 1595.56 1549.27 1590.81 1547.57 1586.15C1551.47 1585.97 1553.22 1586.76 1554 1588.12C1567.85 1612.27 1582.14 1636.2 1595.15 1660.8C1604.53 1678.53 1610.11 1698.51 1621.06 1715.07C1641.56 1746.08 1661.67 1776.82 1672.8 1812.82C1678.04 1829.76 1688.48 1835.7 1706.48 1835.06C1731.28 1834.18 1748.19 1820.39 1760.42 1800.08C1772.04 1780.75 1769.62 1761.38 1758.62 1742.9C1747.06 1723.48 1728.63 1711.61 1710.22 1699.21C1694.15 1688.4 1680.05 1674.57 1665.72 1661.36C1652.33 1649.03 1639.45 1636.08 1626.96 1622.81C1607.51 1602.14 1588.58 1580.96 1569.44 1559.99C1570.64 1558.71 1571.82 1557.44 1573.02 1556.15C1578.09 1560.14 1583.55 1563.74 1588.17 1568.21C1618.8 1597.69 1649.06 1627.53 1679.87 1656.82C1688.1 1664.65 1697.64 1671.15 1706.79 1677.96C1721.44 1688.88 1736.25 1699.56 1751.02 1710.31C1756.18 1714.07 1761.08 1718.38 1766.68 1721.3C1782.51 1729.61 1794.62 1726.11 1804.28 1711.16C1824.88 1679.27 1814.12 1637.08 1780.52 1619.39C1770.83 1614.3 1760.71 1609.55 1750.25 1606.46C1729.11 1600.2 1710.78 1589.57 1694.75 1574.67C1680.89 1561.8 1664.35 1555.65 1645.87 1551.57C1625.61 1547.1 1606.14 1539.01 1586.33 1532.49C1586.79 1530.64 1587.27 1528.79 1587.74 1526.94C1591.12 1527.12 1594.6 1526.89 1597.89 1527.57C1623.87 1532.91 1650.08 1537.48 1675.67 1544.34C1686.7 1547.3 1698.45 1553.11 1706.36 1561.08C1734.3 1589.31 1770.23 1601.72 1806.29 1613.61C1827.9 1620.75 1845.33 1610.72 1853.12 1589.36C1861.18 1567.27 1862.04 1544.61 1855.71 1521.96C1850.02 1501.58 1840.08 1494.48 1818.77 1494.42C1799.06 1494.36 1778.96 1496.8 1759.73 1493.75C1701.46 1484.53 1643.58 1498.63 1585.46 1494.75C1569.26 1493.66 1563.9 1499.65 1563.33 1516.09C1562.12 1551.09 1543.43 1572.33 1512.83 1586.25L1512.82 1586.28Z" fill="#BF72CC"/>
<path d="M1385.11 1753.07C1386.94 1763.29 1392.78 1767.55 1403.56 1766.53C1429.17 1764.1 1446.93 1745.43 1450.84 1715.84C1453.66 1694.58 1449.04 1689.45 1427.49 1689.86C1391.85 1690.55 1380.62 1702.83 1383.41 1738.11C1383.79 1743.11 1384.21 1748.15 1385.1 1753.07H1385.11Z" fill="#BF72CC"/>
<path d="M1167.2 55.6333C1159.48 52.0555 1152.25 46.6607 1146.04 40.7846C1120.89 17.0464 1095.69 20.3613 1076.47 49.2316C1069.8 59.2507 1061.5 69.6426 1051.43 75.6764C1027.39 90.038 1019.1 106.291 1039.7 138.943C1046.98 150.502 1056.53 160.622 1064.01 172.063C1099.95 227.134 1122.04 288.912 1148.42 348.582C1151.36 355.235 1152.26 362.791 1154.09 369.915C1149.39 369.3 1147.3 367.705 1146.21 365.607C1134.49 342.915 1122.61 320.303 1111.36 297.386C1095.09 264.226 1079.74 230.608 1063.17 197.595C1048.89 169.157 1027.46 146.93 999.867 130.905C980.953 119.928 962.059 119.001 942.679 130.683C927.786 139.663 912.39 147.838 896.966 155.877C881.379 163.989 871.026 176.205 866.872 193.112C860.359 219.65 853.864 246.23 848.385 272.997C843.767 295.596 850.553 316.145 869.491 328.695C920.17 362.247 974.488 386.582 1037.53 382.568C1054.86 381.462 1072.12 377.997 1089.41 377.967C1107.54 377.942 1125.69 380.768 1143.82 382.342C1143.77 384.059 1143.72 385.782 1143.67 387.5C1140.39 388.083 1137.14 389.015 1133.83 389.202C1107.79 390.699 1081.66 391.221 1055.71 393.624C1013.44 397.556 971.694 397.859 930.474 385.568C921.952 383.03 912.306 382.949 903.299 383.499C878.959 384.995 871.434 396.125 875.644 419.918C877.17 428.486 875.095 437.649 875.058 446.532C875.027 455.021 873.854 463.965 876.081 471.896C882.421 494.471 900.902 502.765 921.684 508.671C933.761 512.104 946.75 516.081 956.383 523.581C981.319 543.001 998.132 544.962 1021.91 523.597C1045.37 502.538 1067.37 479.785 1089.05 456.85C1105.37 439.58 1117.24 416.342 1136.42 404.062C1156.34 391.308 1164.75 377.142 1169.61 355.464C1177.31 321.219 1190.03 288.132 1198.15 253.961C1209.11 207.839 1210.86 160.887 1206.34 113.583C1203.77 86.5208 1192.14 67.1791 1167.18 55.5787L1167.2 55.6333Z" fill="#00DC60"/>
<path d="M1263.41 528.292C1248.7 529.942 1236.22 525.774 1226.02 515.143C1213.72 502.32 1198.28 498.088 1181.11 498.573C1140.47 499.723 1101.07 507.957 1062.63 520.597C1035.97 529.357 1031.09 543.119 1047.02 566.047C1055.03 577.58 1054.77 586.593 1046.21 596.645C1040.88 602.92 1035 608.881 1030.59 615.761C1022.51 628.377 1014.44 641.168 1008.28 654.75C1005.92 659.959 1006.45 670.173 1009.96 673.26C1013.38 676.27 1023.24 675.017 1028.58 672.301C1048.98 661.945 1069.47 651.406 1088.49 638.777C1119.28 618.314 1151.72 601.875 1186.98 590.833C1213.2 582.628 1239.31 574.063 1263.94 566.138C1269.94 563.126 1274.94 561.492 1278.82 558.455C1283.16 555.065 1290.46 548.607 1289.57 546.619C1286.59 540.097 1281.05 534.313 1275.35 529.631C1272.73 527.475 1267.38 527.815 1263.41 528.259L1263.41 528.292Z" fill="#00DC60"/>
<path d="M1223.86 257.133C1219.22 269.535 1216.12 282.564 1210.91 294.698C1190.42 342.27 1199.37 384.903 1231.7 423.575C1246.04 440.721 1261.88 456.647 1276 473.971C1281.86 481.162 1285.02 490.575 1289.41 498.975C1288.15 499.713 1286.89 500.43 1285.63 501.168C1283.72 499.366 1281.77 497.616 1279.91 495.756C1264.26 479.974 1249.69 462.897 1232.71 448.698C1213.47 432.594 1192.06 419.159 1179.44 396.339C1176.62 391.263 1172.16 385.643 1165.32 391.847C1159.01 397.575 1157.33 404.555 1164.05 410.909C1178.22 424.342 1191.2 440.066 1207.62 449.924C1244.63 472.155 1267.93 506.197 1292.98 539.198C1295.45 542.45 1303.55 544.521 1307.54 543.054C1331.57 534.198 1341.44 518.801 1338.83 493.176C1337.44 479.71 1334.73 465.922 1329.83 453.357C1315.94 417.625 1300.17 382.628 1286.05 346.98C1278.17 327.063 1273.3 305.895 1264.75 286.308C1259.4 274.104 1250.67 262.925 1241.67 252.891C1233.63 243.933 1228.1 245.79 1223.86 257.119L1223.86 257.133Z" fill="#00DC60"/>
<path d="M347.783 2333.39C349.252 2323.03 339.538 2317.42 330.031 2315.94C313.248 2313.33 302.098 2304.28 293.206 2290.28C283.756 2275.43 269.659 2269.14 251.778 2273.06C214.312 2281.26 181.027 2297.43 159.308 2329.83C145.453 2350.5 135.789 2373.95 124.121 2396.08C119.436 2404.96 114.4 2413.68 108.102 2425.02C104.237 2419.37 103.026 2418.36 102.854 2417.21C102.363 2414.08 101.937 2410.87 102.107 2407.72C104.065 2369.85 112.214 2333.74 130.586 2300.01C147.158 2269.55 163.478 2238.89 178.012 2207.45C190.853 2179.65 206.35 2154.31 229.009 2133.46C242.343 2121.18 250.856 2105.65 251.115 2087.66C251.404 2067.24 250.762 2046.47 247.278 2026.41C242.475 1998.81 227.255 1990.89 200.251 1998.52C132.304 2017.73 86.0389 2074.28 82.5792 2144.53C80.5993 2184.67 80.0345 2224.91 80.3391 2265.1C80.7396 2319.9 82.693 2374.7 83.6823 2429.5C83.8075 2436.28 82.1718 2443.08 81.3479 2449.87C79.4193 2450.14 77.4908 2450.4 75.5604 2450.66C72.7633 2442.53 68.4651 2434.58 67.4831 2426.25C65.019 2405.39 63.1384 2384.37 62.6806 2363.39C60.7268 2275.78 45.4648 2189.87 31.6726 2103.66C17.3232 2013.9 5.08824 1923.78 -6.94801 1833.69C-10.9973 1803.4 -11.3791 1772.63 -14.1092 1742.14C-14.4467 1738.3 -18.9623 1734.84 -21.5384 1731.2C-24.5256 1735 -27.869 1738.6 -30.3498 1742.71C-31.3656 1744.39 -30.5987 1747.19 -30.4976 1749.48C-25.4908 1861.5 -11.871 1972.53 9.40695 2082.64C26.5926 2171.54 41.3073 2260.71 44.3651 2351.53C45.3865 2381.99 49.4763 2412.48 54.3506 2442.61C57.3801 2461.32 64.3393 2465.15 82.9487 2465.19C129.116 2465.28 169.705 2449.97 206.4 2422.16C224.92 2408.13 244.568 2395.17 264.993 2384.11C287.06 2372.16 311.025 2363.75 333.305 2352.18C339.857 2348.79 346.783 2340.34 347.767 2333.38L347.783 2333.39Z" fill="#BF72CC"/>
</svg>
