<svg width="165" height="165" viewBox="0 0 165 165" fill="none" xmlns="http://www.w3.org/2000/svg">
<path d="M63.6664 133.245C62.1312 128.731 61.0687 124.807 60.5082 121.582C56.6853 99.5788 62.6861 73.2269 65.6121 66.9244C67.9956 61.7909 70.3389 59.2952 72.2088 59.8986C74.0337 60.4867 74.5213 63.7459 73.5469 68.8399C72.4959 74.3355 71.1768 81.15 71.1768 81.15L69.9618 80.9148C69.9618 80.9148 71.2805 74.1019 72.3315 68.6074C73.3056 63.5148 72.5647 61.3136 71.8292 61.0765C71.1861 60.8686 69.2938 61.9329 66.7344 67.4457C64.2126 72.8773 57.9141 99.4229 61.7276 121.37C62.277 124.532 63.3234 128.393 64.8378 132.847L63.6664 133.245Z" fill="#1E1E1E"/>
<path d="M79.4683 75.1344L78.2607 74.8653C78.2945 74.7127 81.6555 59.5609 81.0779 55.9498C80.9441 55.1151 80.6104 54.079 79.7789 53.8842C79.0283 53.7072 78.0979 54.2502 77.6681 54.8536C75.1856 58.3392 73.9822 63.3715 73.9705 63.4219L72.7656 63.1389C72.8162 62.9236 74.0339 57.8229 76.6602 54.1358C77.3271 53.1998 78.7457 52.3724 80.0613 52.6794C80.8891 52.8733 81.9494 53.5642 82.2997 55.7544C82.9146 59.5972 79.6093 74.502 79.4683 75.1344Z" fill="#1E1E1E"/>
<path d="M87.0348 70.4319L85.8521 70.0677C85.8948 69.9289 90.1241 56.1533 90.2699 52.1342C90.3686 49.4222 89.7237 48.7631 89.4417 48.6058C88.9805 48.3484 88.2868 48.7275 87.9142 48.9764C85.1608 50.8147 82.594 59.4053 81.837 62.5603L80.6338 62.2719C80.7494 61.7895 83.5084 50.4302 87.2269 47.9472C88.572 47.0491 89.5017 47.2221 90.0448 47.5252C91.1058 48.1176 91.5977 49.6834 91.5066 52.1793C91.3548 56.3603 87.211 69.8592 87.0348 70.4319Z" fill="#1E1E1E"/>
<path d="M89.256 82.5651C89.0933 78.4993 91.0756 73.9106 92.9923 69.473C94.7104 65.4957 96.4869 61.3827 96.627 57.8098C96.6754 56.5836 96.4828 55.7685 96.1122 55.6291C95.0713 55.2363 91.9767 58.0181 89.71 60.8208L88.748 60.0427C93.6408 53.99 95.9551 54.2476 96.5477 54.4708C97.9753 55.0073 97.8911 57.1532 97.8637 57.8582C97.7143 61.6617 95.8915 65.8822 94.1283 69.9639C92.2664 74.2742 90.3412 78.7315 90.4927 82.5155L89.256 82.5651Z" fill="#1E1E1E"/>
<path d="M98.0857 132.92C95.2232 127.949 90.9222 106.734 90.7642 102.471C90.5983 97.9898 91.4233 94.1351 96.0413 88.7726L96.1122 88.7025C99.9553 85.4742 101.295 83.7895 103.149 81.4575C104.119 80.239 105.217 78.8575 106.871 76.997C107.492 76.2979 107.747 75.6958 107.588 75.3015C107.392 74.816 106.554 74.4593 105.401 74.3707C103.3 74.2084 100.574 74.9701 99.6487 76.523C99.606 76.5941 99.5565 76.6812 99.4993 76.7815C98.557 78.4329 95.6893 83.4582 88.8423 83.607C82.5106 83.745 80.4042 95.9414 80.3837 96.0646L79.1631 95.8616C79.2535 95.3174 81.4625 82.5301 88.8157 82.3699C94.9618 82.2362 97.5681 77.6689 98.4245 76.1681C98.4861 76.06 98.5397 75.9665 98.5852 75.8898C99.8006 73.8494 103.05 72.9501 105.496 73.1368C107.195 73.2676 108.345 73.8718 108.735 74.8382C108.979 75.4418 109.014 76.4491 107.796 77.8192C106.165 79.6543 105.077 81.0217 104.118 82.2279C102.225 84.6085 100.856 86.3304 96.9465 89.6177C92.6024 94.6757 91.8426 98.1465 92.0009 102.425C92.0771 104.479 93.2135 110.906 94.5879 117.055C96.2855 124.649 97.9512 130.207 99.1581 132.303L98.0857 132.92Z" fill="#1E1E1E"/>
<path d="M43.3534 126.322L42.2041 125.862C42.2406 125.771 45.9392 116.614 53.6814 105.747C60.8321 95.7111 73.0006 82.1065 90.3633 74.2883C105.375 66.6961 108.177 68.0706 111.724 69.8094C112.308 70.0958 112.911 70.3919 113.594 70.6507C116.976 71.9341 125.528 74.4055 131.89 69.6479L132.631 70.6388C125.779 75.7649 116.728 73.164 113.155 71.8076C112.419 71.5283 111.788 71.2193 111.179 70.9206C107.94 69.3329 105.383 68.0788 90.8966 75.4045C73.773 83.1157 61.7688 96.5353 54.7094 106.437C47.0451 117.188 43.3892 126.232 43.3534 126.322Z" fill="#1E1E1E"/>
<path d="M116.389 72.808C116.383 72.808 116.378 72.808 116.373 72.808L116.374 71.5705C116.379 71.5705 116.384 71.5705 116.388 71.5705C122.082 71.5705 123.887 67.0564 124.439 64.7184C123.134 65.149 120.958 65.3867 117.938 65.4267C111.224 65.5158 109.365 69.3779 109.29 69.5423L108.162 69.0327C108.249 68.8391 110.377 64.2895 117.922 64.1892C123.864 64.1105 124.7 63.25 124.733 63.2134C124.925 62.9975 125.231 62.9326 125.495 63.0533C125.759 63.1735 125.912 63.4474 125.875 63.7353C125.76 64.6638 124.509 72.8078 116.389 72.808Z" fill="#1E1E1E"/>
<path d="M129.791 84.4282L129.57 84.0917C129.567 84.087 128.777 82.938 124.604 81.3725C119.663 79.5197 119.627 73.1932 119.628 72.9248L120.865 72.928C120.865 72.9852 120.908 78.6649 125.038 80.214C127.597 81.1735 129.008 82.0096 129.777 82.6006C130.314 80.2863 131.196 74.546 127.208 73.0649L127.639 71.9048C132.437 73.6869 131.822 80.3079 130.703 83.9392L130.586 84.3209L129.791 84.4282Z" fill="#1E1E1E"/>
<path d="M131.858 70.8976L131.668 70.7211C131.608 70.6656 130.198 69.3292 130.276 66.8846C130.366 64.0092 132.417 60.9142 136.371 57.6855L136.404 57.6601C139.919 55.1662 140.073 53.4775 140.068 53.1643L140.06 52.6277L141.138 52.4404L141.313 52.9681C141.763 54.4538 143.835 62.1116 140.398 66.9748C138.687 69.3954 135.901 70.7113 132.117 70.8857L131.858 70.8976ZM137.138 58.6571C132.587 62.3779 131.566 65.2056 131.512 66.9235C131.467 68.3523 132.056 69.2683 132.349 69.6337C135.583 69.4275 137.95 68.2933 139.387 66.2606C141.715 62.9664 141.163 57.9951 140.603 55.249C140.024 56.1823 138.985 57.3433 137.138 58.6571Z" fill="#1E1E1E"/>
<path d="M28.6406 75.185L29.9555 71.1913C30.1164 70.7035 30.3077 70.2956 30.5307 69.9679C30.7535 69.6402 30.995 69.3869 31.2556 69.2074C31.516 69.0281 31.7906 68.9216 32.0794 68.8875C32.3678 68.8533 32.6573 68.8841 32.9473 68.9798C33.4224 69.1363 33.7892 69.4231 34.0476 69.8402C34.3651 69.5631 34.7141 69.3937 35.095 69.3315C35.4761 69.2698 35.8739 69.3069 36.2882 69.4435C36.6358 69.5577 36.9307 69.7194 37.1728 69.9281C37.4153 70.1369 37.5968 70.3929 37.7178 70.6961C37.8389 70.9992 37.8935 71.3492 37.8812 71.7464C37.8689 72.1436 37.7819 72.5876 37.6204 73.0786L36.1164 77.6461L28.6406 75.185ZM33.0176 71.5527C33.0605 71.422 33.1074 71.2961 33.1578 71.1748C33.024 70.894 32.8265 70.7106 32.5648 70.6244C32.2939 70.5353 32.0494 70.5722 31.8313 70.7355C31.6129 70.8987 31.4369 71.1843 31.3025 71.5924L30.4745 74.1082L32.0097 74.6138L33.0176 71.5527ZM36.3128 72.6057C36.4469 72.1976 36.4614 71.8586 36.3559 71.5889C36.2503 71.319 36.0382 71.1317 35.7192 71.0268C35.4003 70.9218 35.1168 70.946 34.8686 71.0991C34.6201 71.2526 34.4287 71.5331 34.2944 71.941L33.2772 75.0309L35.2956 75.6954L36.3128 72.6057Z" fill="#1E1E1E"/>
<path d="M36.3264 78.0627L28.2236 75.3952L29.6418 71.0881C29.812 70.5719 30.0193 70.1326 30.2575 69.7821C30.5023 69.4222 30.775 69.1374 31.0682 68.9356C31.372 68.7263 31.6991 68.6 32.0405 68.5597C32.3754 68.5198 32.7154 68.5557 33.0504 68.6663C33.4802 68.8079 33.8371 69.0449 34.1153 69.3734C34.4023 69.1827 34.7127 69.0594 35.0416 69.0056C35.4742 68.9356 35.928 68.977 36.3913 69.1299C36.7782 69.257 37.1135 69.4415 37.3881 69.678C37.6696 69.9205 37.8835 70.2218 38.0241 70.5735C38.1615 70.9179 38.2243 71.3159 38.2108 71.7566C38.1976 72.1832 38.1043 72.6626 37.9335 73.1816L36.3264 78.0627ZM29.0571 74.9746L35.9058 77.2293L37.3067 72.9754C37.4576 72.5163 37.5399 72.0994 37.551 71.736C37.5619 71.3868 37.5148 71.078 37.411 70.8184C37.3089 70.5626 37.1605 70.3531 36.9572 70.1779C36.7488 69.9984 36.4891 69.8568 36.185 69.7569C35.8235 69.6373 35.4744 69.6039 35.1475 69.657C34.8258 69.7096 34.5368 69.8508 34.2645 70.0887L33.9716 70.3445L33.7668 70.0139C33.5487 69.6617 33.2465 69.4258 32.8437 69.2931C32.6008 69.2129 32.3573 69.1859 32.118 69.2151C31.8807 69.2431 31.66 69.3293 31.4425 69.4792C31.2171 69.6343 31.002 69.8613 30.8034 70.1533C30.5995 70.453 30.4195 70.8369 30.2686 71.2945L29.0571 74.9746ZM35.5056 76.112L32.8602 75.2411L33.9807 71.8378C34.1394 71.3558 34.3797 71.013 34.6949 70.8182C35.0287 70.6123 35.4079 70.5767 35.8221 70.7133C36.2374 70.8498 36.5204 71.104 36.663 71.4686C36.7965 71.8102 36.7842 72.2275 36.6259 72.7087L35.5056 76.112ZM33.6937 74.8205L35.0851 75.2785L35.9991 72.5024C36.1081 72.1709 36.1246 71.904 36.0482 71.7091C35.979 71.5316 35.8414 71.4144 35.6158 71.3401C35.3896 71.2659 35.2063 71.2784 35.0416 71.3797C34.8623 71.4905 34.7163 71.7141 34.6075 72.0442L33.6937 74.8205ZM32.2197 75.0304L30.0577 74.3184L30.9889 71.4891C31.1464 71.0103 31.3573 70.6774 31.6334 70.4712C31.9373 70.2436 32.2947 70.1884 32.6677 70.3106C33.0171 70.4258 33.282 70.6687 33.4554 71.0327L33.5187 71.1654L33.4623 71.3012C33.4151 71.415 33.371 71.533 33.3309 71.6555L32.2197 75.0304ZM30.8908 73.8978L31.7992 74.1969L32.7039 71.4494C32.7321 71.3636 32.7619 71.2796 32.7932 71.1977C32.7072 71.0669 32.5994 70.9832 32.4612 70.9376C32.294 70.8826 32.1599 70.9016 32.0288 70.9995C31.8668 71.1205 31.7279 71.3548 31.6157 71.6954L30.8908 73.8978Z" fill="#1E1E1E"/>
<path d="M32.6855 64.2583L35.8526 58.3516L37.0861 59.013L34.6735 63.513L36.0581 64.2555L38.1947 60.2701L39.3528 60.891L37.2164 64.8764L39.1468 65.9113L41.6093 61.3182L42.8385 61.9773L39.6219 67.9772L32.6855 64.2583Z" fill="#1E1E1E"/>
<path d="M39.7573 68.4234L32.2393 64.3927L35.7181 57.9043L37.5333 58.8775L35.1207 63.3776L35.9236 63.8082L38.0602 59.8228L39.8 60.7555L37.6636 64.741L39.0123 65.464L41.4748 60.871L43.2857 61.8418L39.7573 68.4234ZM33.1327 64.1228L39.4874 67.53L42.3922 62.1117L41.7447 61.7644L39.2822 66.3575L36.7701 65.0109L38.9065 61.0254L38.3301 60.7163L36.1935 64.7017L34.2272 63.6475L36.6398 59.1474L35.988 58.7978L33.1327 64.1228Z" fill="#1E1E1E"/>
<path d="M40.8413 57.7091C40.4002 57.3631 40.0541 56.957 39.8032 56.491C39.552 56.0253 39.4098 55.5242 39.3766 54.988C39.3427 54.4516 39.4243 53.8927 39.6209 53.3104C39.8175 52.7285 40.1416 52.1496 40.5933 51.574C40.9891 51.0696 41.4032 50.6469 41.8359 50.3055C42.2679 49.9641 42.7302 49.6946 43.2228 49.4966L43.7197 50.8209C43.5632 50.8735 43.4021 50.9482 43.2357 51.0461C43.0693 51.144 42.9042 51.2576 42.7406 51.3873C42.5767 51.517 42.4178 51.6586 42.2629 51.8123C42.108 51.9659 41.9654 52.1261 41.8347 52.2926C41.5196 52.6939 41.2882 53.0904 41.1406 53.4826C40.9929 53.8744 40.9237 54.248 40.9331 54.6029C40.9422 54.9584 41.0264 55.2889 41.1853 55.5949C41.344 55.901 41.5716 56.1699 41.8673 56.4021C42.1734 56.6424 42.5003 56.8052 42.8476 56.8902C43.195 56.975 43.5483 56.9802 43.9074 56.9059C44.2668 56.8313 44.6235 56.6763 44.9776 56.4396C45.3316 56.2035 45.6662 55.8849 45.9812 55.4831C46.124 55.301 46.2529 55.11 46.3675 54.9096C46.4819 54.7092 46.582 54.5072 46.6674 54.3034C46.7528 54.0993 46.8243 53.8939 46.8821 53.6874C46.9396 53.4808 46.9829 53.28 47.0119 53.0854L48.4165 53.2534C48.3678 53.7614 48.2308 54.2852 48.005 54.8252C47.7797 55.3652 47.4711 55.8847 47.0793 56.3838C46.5798 57.0203 46.059 57.5139 45.5167 57.865C44.9743 58.2161 44.4323 58.439 43.8903 58.5341C43.3481 58.6294 42.8174 58.6042 42.2979 58.459C41.7783 58.3136 41.2927 58.0636 40.8413 57.7091Z" fill="#1E1E1E"/>
<path d="M43.2531 58.9203C42.9002 58.9205 42.5509 58.8726 42.2089 58.7769C41.6496 58.6204 41.1209 58.3485 40.6375 57.9689C40.1623 57.5962 39.7839 57.1517 39.5124 56.6476C39.2396 56.1418 39.0831 55.5903 39.0471 55.0084C39.0106 54.4326 39.0985 53.8257 39.3081 53.205C39.5158 52.5898 39.8608 51.9727 40.3335 51.3703C40.7436 50.8478 41.1803 50.4025 41.6313 50.0466C42.0857 49.6874 42.5797 49.3994 43.0996 49.1905L43.413 49.0645L44.1486 51.025L43.8247 51.1338C43.6897 51.1791 43.5477 51.2454 43.4029 51.3306C43.2492 51.421 43.0954 51.5272 42.9455 51.646C42.793 51.7667 42.6416 51.9014 42.4951 52.0466C42.3511 52.1894 42.2164 52.3407 42.0941 52.4964C41.8011 52.8696 41.5841 53.2404 41.4492 53.5989C41.3173 53.9492 41.2546 54.2839 41.2629 54.5941C41.2705 54.8975 41.343 55.1829 41.478 55.4429C41.6139 55.7049 41.8133 55.9404 42.0709 56.1428C42.3384 56.3527 42.6261 56.4963 42.926 56.5698C43.2235 56.6421 43.5314 56.6466 43.8404 56.5829C44.1568 56.5172 44.4777 56.3767 44.7941 56.1654C45.118 55.9495 45.4298 55.6516 45.7214 55.2795C45.8545 55.1098 45.9756 54.9301 46.0809 54.746C46.1887 54.5573 46.2836 54.3653 46.3629 54.176C46.4423 53.9863 46.5102 53.7919 46.5641 53.5985C46.6177 53.4062 46.6584 53.217 46.6852 53.0368L46.7325 52.7198L48.7757 52.9641L48.7449 53.2849C48.6931 53.8241 48.5467 54.3853 48.3094 54.9526C48.0738 55.5172 47.7471 56.0675 47.3388 56.5877C46.8191 57.2498 46.2664 57.7727 45.6958 58.1421C45.1188 58.5157 44.5304 58.757 43.9471 58.8593C43.7149 58.9 43.4833 58.9203 43.2531 58.9203ZM43.0363 49.9394C42.6875 50.1074 42.3537 50.3169 42.0403 50.5644C41.6301 50.8883 41.2306 51.2963 40.8528 51.7777C40.4264 52.3211 40.117 52.8722 39.9333 53.416C39.7514 53.955 39.6749 54.4771 39.7057 54.9674C39.7359 55.4534 39.8663 55.9132 40.0934 56.3344C40.3217 56.7583 40.6417 57.1334 41.0447 57.4496C41.4597 57.7755 41.9112 58.0083 42.3868 58.1413C42.8559 58.2724 43.3429 58.2956 43.8329 58.2091C44.3288 58.1223 44.8348 57.9133 45.3373 57.5882C45.8463 57.2585 46.345 56.7847 46.8195 56.1801C47.1911 55.7068 47.4874 55.208 47.7003 54.6983C47.8649 54.3045 47.9803 53.9168 48.0449 53.5415L47.2804 53.4501C47.2572 53.5574 47.2304 53.6662 47.2 53.776C47.1384 53.9959 47.0616 54.2161 46.9716 54.431C46.882 54.6451 46.775 54.8612 46.654 55.0733C46.5325 55.2856 46.3935 55.4918 46.2407 55.6868C45.9059 56.114 45.5424 56.4596 45.1605 56.7142C44.7735 56.9729 44.3743 57.1461 43.9743 57.2291C43.5679 57.3132 43.1624 57.3066 42.7693 57.2109C42.3773 57.1148 42.0053 56.9302 41.6633 56.6619C41.3309 56.4008 41.0715 56.0931 40.8921 55.7468C40.7106 55.3974 40.6133 55.0153 40.603 54.6115C40.5926 54.2159 40.6695 53.7967 40.8316 53.3663C40.9904 52.9449 41.2403 52.5151 41.5749 52.0889C41.7138 51.9119 41.8671 51.7401 42.0303 51.5781C42.1942 51.4156 42.3642 51.2643 42.5356 51.1286C42.709 50.991 42.8883 50.8675 43.0682 50.7618C43.1451 50.7165 43.222 50.6752 43.2984 50.6381L43.0363 49.9394Z" fill="#1E1E1E"/>
<path d="M47.8445 49.198C47.4541 48.7503 47.179 48.2685 47.0191 47.7533C46.8595 47.2378 46.812 46.7172 46.8765 46.1909C46.9413 45.6648 47.1178 45.1469 47.4062 44.6372C47.6944 44.1278 48.0916 43.6522 48.598 43.2111C49.1015 42.772 49.626 42.4443 50.1716 42.2272C50.7167 42.0099 51.2546 41.9052 51.7848 41.913C52.3149 41.9209 52.8243 42.0389 53.3131 42.2677C53.8015 42.4963 54.2412 42.8345 54.6316 43.2824C55.0243 43.733 55.3021 44.2178 55.465 44.7371C55.628 45.2563 55.6791 45.7804 55.6177 46.3107C55.5563 46.8407 55.3827 47.3627 55.0962 47.8773C54.81 48.3916 54.4149 48.8683 53.9113 49.3074C53.4052 49.7485 52.8784 50.0752 52.3308 50.2873C51.7834 50.4998 51.243 50.6003 50.7094 50.5884C50.1761 50.5769 49.6636 50.4549 49.1714 50.2222C48.6793 49.99 48.237 49.6486 47.8445 49.198ZM49.0477 48.1493C49.3148 48.4554 49.6101 48.6836 49.9342 48.8329C50.258 48.9825 50.594 49.0584 50.941 49.0607C51.2883 49.0635 51.6359 48.9948 51.9848 48.8558C52.3334 48.7168 52.6645 48.5106 52.9782 48.2369C53.292 47.9633 53.5417 47.6636 53.727 47.3373C53.9125 47.0108 54.0271 46.6763 54.0706 46.3331C54.1145 45.9897 54.0849 45.6469 53.9826 45.3045C53.8801 44.962 53.6952 44.6376 53.4283 44.3314C53.1614 44.0251 52.8666 43.7989 52.5435 43.6532C52.2202 43.5072 51.8879 43.4353 51.5465 43.4367C51.2049 43.4383 50.8619 43.511 50.5179 43.6551C50.1736 43.7993 49.8447 44.0081 49.5309 44.2817C49.2171 44.5552 48.9651 44.8527 48.7754 45.1737C48.5857 45.495 48.4662 45.8253 48.4167 46.1647C48.3671 46.5037 48.3935 46.8429 48.495 47.1816C48.5965 47.5206 48.781 47.8431 49.0477 48.1493Z" fill="#1E1E1E"/>
<path d="M50.7924 50.9191C50.7622 50.9191 50.732 50.9186 50.7018 50.918C50.1247 50.9056 49.5622 50.7718 49.0301 50.5202C48.4989 50.2697 48.0161 49.8977 47.5954 49.4145C47.1766 48.9341 46.8765 48.408 46.7035 47.8509C46.5309 47.2928 46.4787 46.7207 46.5486 46.1505C46.6185 45.5831 46.8102 45.0194 47.1186 44.4743C47.4242 43.9341 47.8489 43.4254 48.3809 42.9621C48.9096 42.5009 49.471 42.1504 50.0492 41.9204C50.6321 41.6882 51.2168 41.576 51.7893 41.5828C52.3643 41.5913 52.924 41.721 53.4527 41.9685C53.9811 42.2159 54.4614 42.5849 54.88 43.0654C55.3009 43.5482 55.6037 44.0774 55.7795 44.6379C55.9559 45.1998 56.0115 45.7753 55.9453 46.3485C55.879 46.9193 55.6903 47.4877 55.3843 48.0376C55.0808 48.5826 54.6582 49.0934 54.1279 49.5559C53.5947 50.0203 53.0302 50.37 52.4497 50.5948C51.895 50.8101 51.3379 50.9191 50.7924 50.9191ZM51.7298 42.2423C51.2611 42.2423 50.7783 42.3401 50.2935 42.5335C49.7846 42.7359 49.2871 43.0475 48.8145 43.4596C48.339 43.8737 47.9617 44.3245 47.6931 44.7994C47.4276 45.2687 47.2628 45.7503 47.2036 46.2309C47.1452 46.7078 47.1891 47.1872 47.3339 47.6555C47.4796 48.1242 47.7347 48.5701 48.0929 48.9808C48.4536 49.3947 48.8637 49.712 49.3118 49.9235C49.7598 50.1351 50.2323 50.2477 50.7161 50.2582C51.207 50.2679 51.7065 50.1752 52.211 49.9794C52.7202 49.7823 53.2191 49.4723 53.6942 49.0584C54.1668 48.6463 54.5414 48.1947 54.8075 47.7165C55.0711 47.2428 55.2335 46.757 55.2895 46.2724C55.3453 45.7918 55.2981 45.3084 55.1499 44.8357C55.0014 44.3626 54.7432 43.9128 54.3825 43.4991C54.0246 43.0882 53.6175 42.7744 53.1728 42.5663C52.7293 42.3587 52.2606 42.2499 51.7796 42.2427C51.7631 42.2425 51.7463 42.2423 51.7298 42.2423ZM50.9608 49.3905C50.9532 49.3905 50.9457 49.3905 50.9381 49.3903C50.5455 49.3879 50.1608 49.3011 49.7954 49.1321C49.4315 48.9645 49.0959 48.7067 48.7986 48.3659C48.5015 48.0251 48.2931 47.6581 48.1785 47.276C48.0635 46.8917 48.0334 46.5016 48.0898 46.1167C48.1454 45.736 48.2804 45.3622 48.4909 45.0057C48.6977 44.6556 48.9747 44.3281 49.3136 44.0326C49.6528 43.7372 50.015 43.5075 50.39 43.3504C50.7725 43.1903 51.1608 43.1083 51.5445 43.1065C51.5484 43.1065 51.552 43.1065 51.5556 43.1065C51.9401 43.1065 52.3178 43.1891 52.6789 43.3523C53.0437 43.5166 53.3794 43.773 53.6767 44.1144C53.9736 44.4548 54.1829 44.8234 54.2985 45.2095C54.4137 45.5956 54.4471 45.9876 54.3976 46.3747C54.349 46.7584 54.2197 47.1373 54.0137 47.5C53.8111 47.8567 53.5355 48.1883 53.1947 48.4853C52.8545 48.782 52.4886 49.0098 52.1067 49.1621C51.7262 49.3138 51.3407 49.3905 50.9608 49.3905ZM49.2961 47.9321C49.5316 48.2022 49.7926 48.4044 50.0718 48.5329C50.3515 48.662 50.6444 48.7285 50.9427 48.7305C51.2448 48.7268 51.5538 48.6717 51.8624 48.549C52.1746 48.4245 52.4769 48.2358 52.7609 47.988C53.0457 47.7397 53.2739 47.466 53.4397 47.1741C53.6032 46.8865 53.7051 46.5896 53.743 46.2913C53.7807 45.9958 53.7549 45.6955 53.666 45.3986C53.5776 45.1034 53.4139 44.8172 53.1792 44.5481C52.9448 44.2788 52.6851 44.079 52.4076 43.9539C52.1296 43.828 51.8392 43.7511 51.5476 43.7664C51.2509 43.7678 50.9471 43.8326 50.645 43.9591C50.3352 44.089 50.0331 44.2812 49.7475 44.5301C49.4617 44.7793 49.2301 45.0522 49.0593 45.3414C48.8925 45.6236 48.7859 45.9167 48.7428 46.2122C48.7007 46.501 48.7235 46.7953 48.8107 47.0867C48.8981 47.3782 49.0613 47.6626 49.2961 47.9321Z" fill="#1E1E1E"/>
<path d="M55.4805 37.9229L56.8719 37.1408L60.7713 38.2409L61.8581 34.3375L63.2495 33.5552L67.1066 40.4156L65.7152 41.1977L62.9413 36.2642L61.7981 40.067L57.9553 39.0677L60.729 44.001L59.3376 44.7835L55.4805 37.9229Z" fill="#1E1E1E"/>
<path d="M59.2118 45.233L55.0312 37.7971L56.8297 36.786L60.5424 37.8336L61.5771 34.1171L63.3755 33.106L67.5561 40.5416L65.5895 41.6472L63.0341 37.1025L62.0228 40.4665L58.6233 39.5825L61.1785 44.127L59.2118 45.233ZM55.93 38.0489L59.4636 44.3343L60.2797 43.8753L57.2875 38.5533L61.5736 39.6677L62.8488 35.4263L65.8412 40.7485L66.6574 40.2899L63.1237 34.0047L62.1394 34.5582L61.0004 38.6485L56.9143 37.4958L55.93 38.0489Z" fill="#1E1E1E"/>
<path d="M67.4404 31.8318L73.7971 29.7085L74.2406 31.0364L69.398 32.6538L69.8957 34.1441L74.1844 32.7114L74.6008 33.9578L70.312 35.3906L71.0059 37.468L75.9492 35.817L76.391 37.1399L69.9338 39.2969L67.4404 31.8318Z" fill="#1E1E1E"/>
<path d="M69.7249 39.7145L67.0225 31.6234L74.0052 29.291L74.6577 31.245L69.8151 32.8623L70.1037 33.7266L74.3925 32.2939L75.0179 34.1663L70.7291 35.5992L71.2139 37.0506L76.1573 35.3996L76.8081 37.3485L69.7249 39.7145ZM67.8575 32.0403L70.1418 38.8794L75.973 36.9315L75.7404 36.2346L70.797 37.8856L69.894 35.1822L74.1828 33.7494L73.9755 33.129L69.6868 34.5617L68.98 32.4454L73.8227 30.828L73.5882 30.1261L67.8575 32.0403Z" fill="#1E1E1E"/>
<path d="M87.7391 27.4692L91.8883 27.4932C92.4927 27.4966 93.016 27.5653 93.4583 27.6987C93.9008 27.8322 94.267 28.0233 94.5576 28.2715C94.8481 28.52 95.0638 28.8226 95.2046 29.1793C95.3452 29.5358 95.4142 29.9376 95.4116 30.3839C95.409 30.8037 95.3363 31.191 95.1931 31.5459C95.0503 31.9008 94.8325 32.2078 94.5409 32.4662C94.249 32.7248 93.8809 32.9254 93.4371 33.069C92.9932 33.2124 92.4691 33.2823 91.8647 33.2789L89.3017 33.2587L89.2896 35.3486L87.6934 35.3392L87.7391 27.4692ZM91.9032 31.8945C92.2051 31.8962 92.4695 31.8615 92.6965 31.7906C92.9237 31.7197 93.1141 31.6186 93.2675 31.4869C93.421 31.3552 93.536 31.1946 93.6126 31.0055C93.6893 30.8162 93.7284 30.6057 93.7296 30.3741C93.7324 29.9076 93.5826 29.5434 93.28 29.2814C92.9779 29.0195 92.5247 28.8866 91.9205 28.883L89.3272 28.8681L89.3097 31.8792L91.9032 31.8945Z" fill="#1E1E1E"/>
<path d="M89.6176 35.6805L87.3613 35.6672L87.4113 27.1372L91.8904 27.1632C92.5228 27.1666 93.0823 27.2405 93.5533 27.3825C94.0375 27.5286 94.4471 27.7433 94.7718 28.0204C95.103 28.3038 95.3519 28.6529 95.5114 29.0581C95.6673 29.4531 95.7447 29.8998 95.7414 30.3858C95.739 30.8451 95.6573 31.2767 95.4993 31.6691C95.3378 32.0703 95.0889 32.4216 94.7597 32.713C94.4355 33.0002 94.025 33.2256 93.5388 33.3829C93.0634 33.5364 92.497 33.6236 91.8626 33.6087L89.6297 33.5912L89.6176 35.6805ZM88.0252 35.011L88.9618 35.0166L88.9739 32.9261L91.867 32.9489C92.4281 32.9458 92.9273 32.8866 93.3357 32.7549C93.7345 32.6258 94.0665 32.4455 94.3223 32.2189C94.574 31.996 94.7642 31.7281 94.887 31.4225C95.0139 31.1077 95.0792 30.7577 95.0816 30.382C95.084 29.9802 95.022 29.6164 94.8975 29.3002C94.7759 28.992 94.5946 28.7375 94.3428 28.5221C94.0886 28.3048 93.7587 28.1338 93.3627 28.0146C92.9522 27.8907 92.4555 27.8263 91.8863 27.823L88.0671 27.8011L88.0252 35.011ZM91.923 32.2246C91.9157 32.2246 91.9085 32.2246 91.9016 32.2244L88.9779 32.2073L88.9992 28.536L91.9226 28.553C92.6046 28.557 93.1343 28.7181 93.4965 29.0319C93.8735 29.3586 94.0632 29.8108 94.0596 30.376C94.0584 30.6485 94.0105 30.9021 93.9182 31.1297C93.8219 31.3671 93.6753 31.5716 93.4828 31.7371C93.2958 31.8975 93.0646 32.0213 92.7947 32.1055C92.5422 32.1845 92.2489 32.2246 91.923 32.2246ZM91.9053 31.5645C92.1897 31.5609 92.4052 31.5357 92.5981 31.4755C92.7814 31.4183 92.9345 31.3377 93.0525 31.2364C93.1665 31.1387 93.2495 31.0227 93.3067 30.8815C93.3676 30.7319 93.3986 30.5607 93.3998 30.3721C93.4018 30.0034 93.2922 29.7282 93.0642 29.5306C92.8241 29.323 92.439 29.216 91.9186 29.2128L89.6551 29.1999L89.6418 31.551L91.9053 31.5645Z" fill="#1E1E1E"/>
<path d="M99.3497 27.9604L105.942 29.1667L105.691 30.5436L100.668 29.6245L100.385 31.1702L104.833 31.9837L104.597 33.2766L100.149 32.4629L99.7544 34.6174L104.881 35.5552L104.63 36.9275L97.9336 35.7023L99.3497 27.9604Z" fill="#1E1E1E"/>
<path d="M104.895 37.3119L97.5498 35.9679L99.085 27.5767L106.326 28.9018L105.956 30.928L100.933 30.009L100.769 30.9053L105.217 31.7188L104.862 33.6608L100.414 32.8471L100.138 34.3525L105.265 35.2903L104.895 37.3119ZM98.3176 35.4373L104.365 36.5437L104.497 35.8208L99.3706 34.883L99.8838 32.0793L104.332 32.8928L104.45 32.2493L100.001 31.4358L100.403 29.2408L105.426 30.1598L105.559 29.4323L99.6151 28.3449L98.3176 35.4373Z" fill="#1E1E1E"/>
<path d="M112.397 31.1797L113.983 31.7684L114.812 40.4716L113.24 39.8879L113.111 38.4274L108.801 36.8276L107.769 37.8568L106.192 37.2715L112.397 31.1797ZM112.978 36.9762L112.627 33.0323L109.83 35.8074L112.978 36.9762Z" fill="#1E1E1E"/>
<path d="M115.19 40.9635L112.929 40.124L112.8 38.6638L108.884 37.21L107.852 38.2392L105.59 37.3995L112.314 30.7969L114.291 31.5306L115.19 40.9635ZM113.55 39.6507L114.433 39.9786L113.673 32.0052L112.478 31.5615L106.794 37.1425L107.685 37.4734L108.717 36.4442L113.421 38.1901L113.55 39.6507ZM113.353 37.467L109.23 35.9364L112.893 32.3027L113.353 37.467ZM110.428 35.6774L112.603 36.4845L112.36 33.7609L110.428 35.6774Z" fill="#1E1E1E"/>
<path d="M118.249 37.769C118.535 37.2874 118.893 36.8918 119.322 36.5828C119.752 36.2741 120.231 36.0684 120.758 35.9663C121.286 35.8638 121.851 35.8726 122.453 35.9927C123.056 36.1125 123.671 36.3595 124.3 36.7335C124.851 37.061 125.324 37.4173 125.718 37.802C126.113 38.1867 126.44 38.6107 126.699 39.0735L125.45 39.7366C125.378 39.5884 125.283 39.4379 125.164 39.2856C125.046 39.1332 124.912 38.9843 124.762 38.8387C124.612 38.6929 124.451 38.5535 124.279 38.4195C124.107 38.2858 123.929 38.1648 123.748 38.057C123.309 37.7962 122.886 37.6177 122.478 37.5218C122.071 37.4258 121.691 37.4054 121.34 37.4602C120.989 37.5152 120.672 37.6413 120.389 37.8381C120.106 38.035 119.869 38.2953 119.677 38.6181C119.478 38.9531 119.358 39.2979 119.319 39.6534C119.279 40.0087 119.32 40.3598 119.44 40.7066C119.56 41.0531 119.76 41.3868 120.04 41.7075C120.319 42.0281 120.679 42.319 121.118 42.5798C121.317 42.6982 121.523 42.8009 121.736 42.8888C121.95 42.977 122.163 43.0499 122.376 43.1083C122.589 43.1667 122.802 43.2112 123.014 43.2416C123.227 43.2723 123.431 43.2894 123.628 43.2932L123.642 44.708C123.132 44.7249 122.595 44.6562 122.031 44.5021C121.466 44.3482 120.911 44.1089 120.366 43.7849C119.67 43.3714 119.114 42.9182 118.696 42.4257C118.278 41.9332 117.987 41.4243 117.823 40.899C117.658 40.3739 117.615 39.8442 117.692 39.3102C117.77 38.7763 117.955 38.2624 118.249 37.769Z" fill="#1E1E1E"/>
<path d="M123.492 45.0402C122.999 45.0402 122.479 44.9663 121.943 44.8203C121.354 44.6595 120.766 44.4065 120.197 44.0684C119.474 43.6385 118.884 43.1578 118.444 42.6389C117.999 42.1144 117.684 41.5619 117.507 40.997C117.329 40.428 117.281 39.8445 117.365 39.2628C117.449 38.6877 117.65 38.1284 117.965 37.6001C118.273 37.0814 118.665 36.6488 119.13 36.3147C119.597 35.9791 120.123 35.7527 120.695 35.6419C121.262 35.5324 121.875 35.5412 122.517 35.6687C123.153 35.7952 123.81 36.0581 124.469 36.4496C125.039 36.7884 125.537 37.1638 125.948 37.5654C126.363 37.9697 126.712 38.4227 126.986 38.9117L127.152 39.2064L125.301 40.1883L125.152 39.8799C125.091 39.7538 125.007 39.6219 124.903 39.488C124.795 39.3488 124.671 39.2102 124.532 39.0751C124.392 38.9389 124.238 38.806 124.076 38.6799C123.915 38.5548 123.748 38.4406 123.579 38.3405C123.171 38.0978 122.775 37.9304 122.402 37.8428C122.039 37.7572 121.699 37.7377 121.391 37.786C121.091 37.8329 120.817 37.9415 120.577 38.1087C120.335 38.2777 120.127 38.5057 119.96 38.7866C119.786 39.0791 119.681 39.383 119.646 39.6896C119.613 39.9941 119.648 40.2999 119.751 40.5984C119.857 40.9033 120.038 41.2034 120.288 41.49C120.544 41.7831 120.88 42.0542 121.286 42.2959C121.468 42.4045 121.662 42.5014 121.861 42.5833C122.059 42.6651 122.262 42.7346 122.463 42.7898C122.662 42.8444 122.863 42.8865 123.06 42.9147C123.259 42.9433 123.452 42.9594 123.634 42.963L123.954 42.9692L123.975 45.0267L123.653 45.0376C123.6 45.0392 123.546 45.0402 123.492 45.0402ZM121.51 36.2256C121.272 36.2256 121.041 36.247 120.821 36.2899C120.343 36.3825 119.904 36.5711 119.515 36.8506C119.124 37.1314 118.793 37.497 118.532 37.9373C118.262 38.3907 118.089 38.8686 118.019 39.3572C117.949 39.8402 117.989 40.3257 118.137 40.8002C118.287 41.2804 118.56 41.7553 118.947 42.2119C119.34 42.675 119.874 43.1086 120.534 43.501C121.052 43.8087 121.584 44.0384 122.117 44.1834C122.529 44.296 122.929 44.3604 123.309 44.3763L123.301 43.6061C123.191 43.5969 123.079 43.5842 122.967 43.568C122.743 43.5358 122.514 43.4881 122.288 43.4263C122.061 43.3638 121.833 43.2857 121.609 43.1934C121.381 43.0994 121.159 42.9882 120.948 42.8631C120.482 42.5857 120.092 42.2699 119.791 41.9243C119.484 41.5732 119.261 41.2 119.128 40.8143C118.992 40.4223 118.946 40.0195 118.991 39.6167C119.035 39.2163 119.17 38.8235 119.393 38.4493C119.608 38.0869 119.88 37.79 120.2 37.5671C120.523 37.3421 120.89 37.1965 121.289 37.1338C121.681 37.0732 122.107 37.0953 122.554 37.2003C122.992 37.3034 123.45 37.496 123.916 37.7731C124.108 37.8867 124.298 38.0164 124.481 38.1584C124.663 38.2998 124.835 38.4489 124.992 38.6019C125.153 38.7584 125.299 38.9204 125.425 39.0833C125.479 39.1538 125.53 39.2245 125.577 39.2952L126.236 38.9454C126.024 38.6209 125.773 38.3167 125.488 38.038C125.113 37.6726 124.657 37.3292 124.131 37.0168C123.537 36.6637 122.951 36.4279 122.388 36.3161C122.086 36.2558 121.792 36.2256 121.51 36.2256Z" fill="#1E1E1E"/>
<path d="M130.436 40.9834L135.52 45.3505L134.608 46.4124L130.735 43.0854L129.711 44.277L133.141 47.2235L132.284 48.2205L128.854 45.2742L127.427 46.9354L131.381 50.3315L130.472 51.3894L125.308 46.9534L130.436 40.9834Z" fill="#1E1E1E"/>
<path d="M130.506 51.8546L124.842 46.9886L130.4 40.5181L135.985 45.3152L134.643 46.8776L130.769 43.5506L130.176 44.2416L133.606 47.1882L132.32 48.6857L128.889 45.7394L127.892 46.9001L131.845 50.2962L130.506 51.8546ZM125.772 46.9181L130.436 50.924L130.915 50.3667L126.961 46.9706L128.819 44.8088L132.249 47.7551L132.675 47.2587L129.245 44.3121L130.699 42.62L134.572 45.947L135.054 45.3857L130.471 41.4486L125.772 46.9181Z" fill="#1E1E1E"/>
</svg>
