<svg width="641" height="696" viewBox="0 0 641 696" fill="none" xmlns="http://www.w3.org/2000/svg">
<path d="M419.2 55.0698C411.48 51.492 404.25 46.0972 398.036 40.2212C372.895 16.4829 347.689 19.7979 328.47 48.6681C321.797 58.6872 313.503 69.0791 303.432 75.1129C279.39 89.4745 271.1 105.727 291.699 138.38C298.983 149.939 308.53 160.058 316.008 171.499C351.948 226.57 374.037 288.348 400.417 348.018C403.357 354.672 404.256 362.227 406.093 369.351C401.385 368.737 399.305 367.141 398.214 365.043C386.486 342.351 374.612 319.74 363.357 296.823C347.085 263.663 331.74 230.044 315.173 197.031C300.89 168.594 279.461 146.367 251.867 130.342C232.953 119.365 214.059 118.438 194.679 130.119C179.786 139.1 164.39 147.274 148.966 155.313C133.379 163.425 123.026 175.641 118.872 192.548C112.359 219.087 105.864 245.666 100.385 272.434C95.7665 295.033 102.553 315.581 121.491 328.132C172.17 361.684 226.488 386.018 289.532 382.004C306.856 380.898 324.12 377.434 341.412 377.403C359.541 377.378 377.686 380.204 395.818 381.778C395.774 383.495 395.717 385.219 395.674 386.936C392.395 387.52 389.139 388.452 385.833 388.639C359.791 390.135 333.663 390.657 307.711 393.061C265.44 396.992 223.694 397.295 182.474 385.005C173.952 382.467 164.306 382.385 155.299 382.936C130.959 384.431 123.434 395.561 127.644 419.355C129.17 427.922 127.095 437.085 127.058 445.969C127.027 454.457 125.854 463.401 128.081 471.333C134.421 493.907 152.902 502.201 173.684 508.107C185.761 511.54 198.75 515.517 208.383 523.018C233.319 542.438 250.132 544.399 273.911 523.034C297.367 501.974 319.371 479.222 341.049 456.287C357.371 439.016 369.238 415.778 388.42 403.498C408.342 390.745 416.752 376.578 421.614 354.9C429.307 320.656 442.03 287.569 450.147 253.398C461.106 207.276 462.856 160.324 458.344 113.02C455.768 85.9573 444.145 66.6156 419.176 55.0152L419.2 55.0698Z" fill="#E6ABFF"/>
<path d="M515.412 527.729C500.702 529.379 488.218 525.211 478.02 514.58C465.724 501.757 450.281 497.525 433.108 498.009C392.474 499.16 353.069 507.393 314.629 520.033C287.966 528.793 283.094 542.556 299.019 565.483C307.029 577.016 306.771 586.03 298.213 596.081C292.881 602.356 287.002 608.318 282.592 615.197C274.512 627.814 266.443 640.605 260.28 654.187C257.915 659.395 258.45 669.61 261.959 672.697C265.384 675.707 275.243 674.453 280.576 671.738C300.984 661.382 321.475 650.842 340.486 638.214C371.278 617.75 403.717 601.311 438.983 590.269C465.204 582.064 491.315 573.5 515.941 565.575C521.945 562.563 526.937 560.929 530.818 557.891C535.164 554.501 542.462 548.044 541.567 546.055C538.587 539.534 533.052 533.749 527.349 529.068C524.727 526.912 519.375 527.251 515.413 527.696L515.412 527.729Z" fill="#E6ABFF"/>
<path d="M475.861 256.57C471.222 268.972 468.122 282.001 462.907 294.135C442.422 341.706 451.37 384.34 483.698 423.012C498.036 440.158 513.881 456.084 528.002 473.407C533.864 480.598 537.024 490.012 541.407 498.412C540.145 499.149 538.89 499.867 537.628 500.604C535.718 498.802 533.766 497.052 531.913 495.193C516.263 479.41 501.694 462.333 484.713 448.135C465.466 432.03 444.059 418.595 431.438 395.775C428.623 390.7 424.158 385.079 417.322 391.284C411.012 397.011 409.332 403.991 416.052 410.346C430.222 423.778 443.195 439.503 459.616 449.36C496.633 471.591 519.925 505.634 544.984 538.634C547.452 541.887 555.554 543.957 559.54 542.49C583.574 533.635 593.438 518.238 590.826 492.612C589.444 479.147 586.725 465.358 581.828 452.793C567.94 417.061 552.166 382.065 538.053 346.416C530.17 326.5 525.303 305.332 516.748 285.745C511.404 273.54 502.667 262.361 493.666 252.328C485.631 243.37 480.099 245.226 475.855 256.556L475.861 256.57Z" fill="#E6ABFF"/>
</svg>
