<svg width="45" height="45" viewBox="0 0 45 45" fill="none" xmlns="http://www.w3.org/2000/svg">
<path d="M35.4715 10.2007C35.193 10.0568 34.9219 9.89898 34.6592 9.72792C33.8952 9.22283 33.1947 8.62769 32.5728 7.95531C31.0168 6.17496 30.4357 4.36882 30.2216 3.10426H30.2302C30.0514 2.05462 30.1253 1.37549 30.1365 1.37549H23.0495V28.7796C23.0495 29.1476 23.0495 29.5112 23.034 29.8706C23.034 29.9153 23.0297 29.9565 23.0272 30.0047C23.0272 30.0244 23.0272 30.0451 23.0229 30.0657C23.0229 30.0709 23.0229 30.076 23.0229 30.0812C22.9482 31.0644 22.633 32.0143 22.105 32.8471C21.5771 33.68 20.8525 34.3703 19.9951 34.8574C19.1016 35.3658 18.0909 35.6325 17.0628 35.6311C13.7609 35.6311 11.0848 32.9387 11.0848 29.6135C11.0848 26.2884 13.7609 23.5959 17.0628 23.5959C17.6879 23.5953 18.3091 23.6937 18.9034 23.8873L18.912 16.6714C17.1079 16.4383 15.275 16.5817 13.5291 17.0925C11.7832 17.6032 10.1621 18.4703 8.76802 19.6389C7.5465 20.7002 6.51956 21.9666 5.73343 23.381C5.43426 23.8968 4.30553 25.9694 4.16885 29.3333C4.08288 31.2426 4.65627 33.2206 4.92965 34.0382V34.0554C5.10158 34.5368 5.76781 36.1796 6.85356 37.5645C7.72907 38.6754 8.76345 39.6513 9.92339 40.4607V40.4435L9.94059 40.4607C13.3715 42.7921 17.1755 42.639 17.1755 42.639C17.834 42.6124 20.0398 42.639 22.5449 41.4519C25.3233 40.1357 26.9051 38.1748 26.9051 38.1748C27.9156 37.0032 28.7191 35.668 29.2812 34.2264C29.9225 32.5407 30.1365 30.5187 30.1365 29.7107V15.1721C30.2225 15.2237 31.3675 15.9811 31.3675 15.9811C31.3675 15.9811 33.0172 17.0384 35.591 17.727C37.4376 18.217 39.9254 18.3202 39.9254 18.3202V11.2848C39.0537 11.3793 37.2837 11.1042 35.4715 10.2007Z" fill="black"/>
</svg>
