<svg width="45" height="45" viewBox="0 0 45 45" fill="none" xmlns="http://www.w3.org/2000/svg">
<g clip-path="url(#clip0_218_838)">
<path d="M30.2626 0.630371H13.7557C6.15982 0.630371 0 6.79019 0 14.3861V30.893C0 38.4889 6.15982 44.6487 13.7557 44.6487H30.2626C37.8586 44.6487 44.0184 38.4889 44.0184 30.893V14.3861C44.0184 6.79019 37.8586 0.630371 30.2626 0.630371ZM39.8917 30.893C39.8917 36.2028 35.5724 40.5221 30.2626 40.5221H13.7557C8.44602 40.5221 4.12672 36.2028 4.12672 30.893V14.3861C4.12672 9.07639 8.44602 4.75709 13.7557 4.75709H30.2626C35.5724 4.75709 39.8917 9.07639 39.8917 14.3861V30.893Z" fill="#1E1E1E"/>
<path d="M22.0095 11.6348C15.9322 11.6348 11.0049 16.5621 11.0049 22.6394C11.0049 28.7167 15.9322 33.644 22.0095 33.644C28.0868 33.644 33.0141 28.7167 33.0141 22.6394C33.0141 16.5621 28.0868 11.6348 22.0095 11.6348ZM22.0095 29.5173C18.2184 29.5173 15.1316 26.4305 15.1316 22.6394C15.1316 18.8455 18.2184 15.7615 22.0095 15.7615C25.8006 15.7615 28.8874 18.8455 28.8874 22.6394C28.8874 26.4305 25.8006 29.5173 22.0095 29.5173Z" fill="#1E1E1E"/>
<path d="M33.8405 12.276C34.6503 12.276 35.3068 11.6195 35.3068 10.8096C35.3068 9.99977 34.6503 9.34326 33.8405 9.34326C33.0305 9.34326 32.374 9.99977 32.374 10.8096C32.374 11.6195 33.0305 12.276 33.8405 12.276Z" fill="#1E1E1E"/>
</g>
<defs>
<clipPath id="clip0_218_838">
<rect width="44.0184" height="44.0184" fill="white" transform="translate(0 0.630371)"/>
</clipPath>
</defs>
</svg>
