<svg width="110" height="110" viewBox="0 0 110 110" fill="none" xmlns="http://www.w3.org/2000/svg">
<path d="M42.4439 88.8301C41.4205 85.8204 40.7122 83.2044 40.3385 81.0544C37.7899 66.3856 41.7904 48.8177 43.7411 44.6161C45.3301 41.1937 46.8923 39.5299 48.1389 39.9322C49.3555 40.3243 49.6805 42.497 49.0309 45.893C48.3303 49.5568 47.4509 54.0998 47.4509 54.0998L46.6409 53.943C46.6409 53.943 47.52 49.401 48.2207 45.7381C48.87 42.343 48.3762 40.8755 47.8858 40.7175C47.457 40.5789 46.1955 41.2884 44.4892 44.9636C42.8081 48.5846 38.6091 66.2817 41.1514 80.9131C41.5177 83.021 42.2153 85.5954 43.2249 88.5642L42.4439 88.8301Z" fill="#9BFFDB"/>
<path d="M52.9782 50.0893L52.1731 49.9099C52.1957 49.8082 54.4364 39.707 54.0513 37.2996C53.9621 36.7431 53.7396 36.0524 53.1853 35.9225C52.6849 35.8045 52.0646 36.1665 51.7781 36.5688C50.1231 38.8925 49.3208 42.2474 49.313 42.281L48.5098 42.0923C48.5435 41.9488 49.3553 38.5483 51.1062 36.0903C51.5507 35.4663 52.4965 34.9147 53.3736 35.1193C53.9254 35.2486 54.6323 35.7092 54.8658 37.1693C55.2757 39.7312 53.0722 49.6677 52.9782 50.0893Z" fill="#9BFFDB"/>
<path d="M58.0232 46.9544L57.2347 46.7116C57.2632 46.6191 60.0827 37.4353 60.18 34.7559C60.2458 32.9479 59.8158 32.5085 59.6278 32.4037C59.3203 32.2321 58.8579 32.4848 58.6094 32.6507C56.7739 33.8763 55.0626 39.6033 54.558 41.7067L53.7559 41.5144C53.8329 41.1928 55.6723 33.6199 58.1513 31.9646C59.048 31.3658 59.6678 31.4812 60.0298 31.6833C60.7372 32.0782 61.0651 33.122 61.0044 34.786C60.9032 37.5733 58.1407 46.5726 58.0232 46.9544Z" fill="#9BFFDB"/>
<path d="M59.5037 55.0434C59.3952 52.3328 60.7167 49.2737 61.9945 46.3153C63.1399 43.6638 64.3242 40.9218 64.4177 38.5399C64.4499 37.7224 64.3216 37.179 64.0745 37.0861C63.3805 36.8242 61.3175 38.6787 59.8063 40.5472L59.165 40.0285C62.4269 35.9933 63.9698 36.165 64.3648 36.3138C65.3166 36.6715 65.2604 38.1021 65.2422 38.5721C65.1425 41.1078 63.9273 43.9214 62.7519 46.6426C61.5106 49.5161 60.2272 52.4877 60.3281 55.0103L59.5037 55.0434Z" fill="#9BFFDB"/>
<path d="M65.3895 88.6134C63.4812 85.2994 60.6138 71.156 60.5085 68.3141C60.3979 65.3265 60.9479 62.7567 64.0266 59.1817L64.0739 59.1349C66.6359 56.9827 67.5291 55.8596 68.7652 54.305C69.4114 53.4926 70.144 52.5716 71.2464 51.3313C71.6605 50.8652 71.8302 50.4638 71.7242 50.2009C71.5937 49.8773 71.0351 49.6395 70.2665 49.5804C68.8657 49.4722 67.0484 49.98 66.4315 51.0153C66.403 51.0627 66.37 51.1207 66.3319 51.1876C65.7037 52.2885 63.7919 55.6388 59.2272 55.738C55.0061 55.83 53.6018 63.9609 53.5881 64.043L52.7744 63.9077C52.8347 63.5449 54.3073 55.02 59.2095 54.9133C63.3069 54.8241 65.0444 51.7792 65.6154 50.7787C65.6564 50.7066 65.6922 50.6443 65.7225 50.5932C66.5327 49.2329 68.6992 48.6334 70.3298 48.7578C71.4623 48.845 72.2291 49.2478 72.4893 49.8921C72.6518 50.2945 72.6749 50.966 71.863 51.8794C70.7754 53.1028 70.0505 54.0144 69.4111 54.8186C68.1489 56.4056 67.2361 57.5536 64.63 59.7451C61.7339 63.1171 61.2274 65.4309 61.333 68.2835C61.3837 69.6529 62.1413 73.9371 63.0576 78.0369C64.1893 83.0994 65.2998 86.8044 66.1044 88.202L65.3895 88.6134Z" fill="#9BFFDB"/>
<path d="M28.9029 84.2142L28.1367 83.908C28.161 83.8473 30.6268 77.7425 35.7882 70.498C40.5554 63.8072 48.6677 54.7375 60.2428 49.5254C70.2508 44.4639 72.1183 45.3802 74.4832 46.5394C74.8726 46.7304 75.2749 46.9278 75.7298 47.1003C77.9846 47.9559 83.6863 49.6035 87.9273 46.4317L88.4215 47.0924C83.8534 50.5098 77.8195 48.7758 75.4371 47.8716C74.9465 47.6854 74.5262 47.4794 74.1201 47.2802C71.9609 46.2217 70.2559 45.3857 60.5984 50.2695C49.1827 55.4103 41.1799 64.3567 36.4736 70.958C31.3641 78.125 28.9268 84.1543 28.9029 84.2142Z" fill="#9BFFDB"/>
<path d="M77.5928 48.5386C77.5891 48.5386 77.5858 48.5386 77.5821 48.5386L77.5832 47.7136C77.5864 47.7136 77.5896 47.7136 77.5926 47.7136C81.3886 47.7136 82.5914 44.7042 82.9596 43.1455C82.0895 43.4325 80.6393 43.591 78.6257 43.6177C74.1497 43.6771 72.9106 46.2518 72.8601 46.3614L72.1084 46.0217C72.1661 45.8926 73.5849 42.8596 78.6149 42.7927C82.5761 42.7402 83.1334 42.1666 83.1554 42.1421C83.2838 41.9982 83.4876 41.955 83.6635 42.0354C83.8394 42.1156 83.9415 42.2982 83.9173 42.4901C83.8402 43.1091 83.0063 48.5384 77.5928 48.5386Z" fill="#9BFFDB"/>
<path d="M86.5276 56.2854L86.3802 56.061C86.378 56.058 85.8516 55.2919 83.0691 54.2483C79.7756 53.0131 79.7514 48.7954 79.752 48.6164L80.577 48.6186C80.577 48.6567 80.6054 52.4432 83.3586 53.4759C85.0645 54.1156 86.0055 54.673 86.5182 55.067C86.8759 53.5241 87.4638 49.6972 84.8054 48.7099L85.0927 47.9365C88.2912 49.1245 87.8816 53.5385 87.1356 55.9594L87.0572 56.2139L86.5276 56.2854Z" fill="#9BFFDB"/>
<path d="M87.9058 47.2649L87.7788 47.1473C87.7388 47.1103 86.7991 46.2193 86.8507 44.5896C86.9111 42.6727 88.2783 40.6094 90.9144 38.4569L90.9365 38.44C93.2793 36.7773 93.3825 35.6516 93.3792 35.4428L93.3739 35.0851L94.0925 34.9602L94.2088 35.312C94.5091 36.3024 95.8902 41.4076 93.5989 44.6498C92.4581 46.2635 90.6008 47.1407 88.0785 47.257L87.9058 47.2649ZM91.4255 39.1046C88.3914 41.5851 87.7111 43.4703 87.6751 44.6155C87.6451 45.5681 88.0374 46.1788 88.2329 46.4224C90.3892 46.2849 91.9672 45.5287 92.9251 44.1736C94.4771 41.9775 94.1089 38.6633 93.7356 36.8325C93.35 37.4548 92.6571 38.2288 91.4255 39.1046Z" fill="#9BFFDB"/>
<path d="M19.0938 50.1234L19.9703 47.4609C20.0776 47.1357 20.2052 46.8638 20.3538 46.6453C20.5023 46.4269 20.6633 46.2579 20.8371 46.1383C21.0107 46.0188 21.1937 45.9478 21.3863 45.9251C21.5786 45.9022 21.7715 45.9228 21.9649 45.9866C22.2816 46.0909 22.5261 46.2821 22.6984 46.5602C22.91 46.3754 23.1427 46.2625 23.3967 46.221C23.6507 46.1799 23.9159 46.2046 24.1921 46.2957C24.4239 46.3718 24.6205 46.4796 24.7819 46.6187C24.9435 46.758 25.0645 46.9286 25.1452 47.1307C25.2259 47.3328 25.2623 47.5662 25.2541 47.831C25.2459 48.0958 25.1879 48.3917 25.0802 48.7191L24.0776 51.7641L19.0938 50.1234ZM22.0117 47.7018C22.0403 47.6147 22.0716 47.5307 22.1052 47.4499C22.016 47.2627 21.8843 47.1404 21.7099 47.0829C21.5293 47.0236 21.3663 47.0482 21.2208 47.1571C21.0753 47.2658 20.9579 47.4562 20.8684 47.7283L20.3163 49.4055L21.3398 49.7426L22.0117 47.7018ZM24.2085 48.4038C24.2979 48.1318 24.3076 47.9058 24.2372 47.726C24.1669 47.5461 24.0255 47.4212 23.8128 47.3512C23.6002 47.2813 23.4112 47.2974 23.2457 47.3994C23.08 47.5017 22.9525 47.6888 22.8629 47.9607L22.1848 50.0207L23.5304 50.4636L24.2085 48.4038Z" fill="#9BFFDB"/>
<path d="M24.2182 52.0419L18.8164 50.2635L19.7619 47.3921C19.8753 47.048 20.0135 46.7551 20.1723 46.5215C20.3355 46.2815 20.5173 46.0916 20.7128 45.9571C20.9153 45.8176 21.1334 45.7334 21.361 45.7065C21.5843 45.6799 21.8109 45.7038 22.0342 45.7776C22.3208 45.872 22.5587 46.03 22.7442 46.249C22.9355 46.1218 23.1424 46.0397 23.3617 46.0038C23.6501 45.9571 23.9526 45.9847 24.2615 46.0867C24.5194 46.1714 24.743 46.2944 24.926 46.452C25.1137 46.6137 25.2563 46.8146 25.3501 47.049C25.4417 47.2786 25.4835 47.544 25.4745 47.8378C25.4657 48.1222 25.4035 48.4418 25.2896 48.7878L24.2182 52.0419ZM19.372 49.9831L23.9379 51.4862L24.8718 48.6503C24.9724 48.3443 25.0273 48.0663 25.0347 47.8241C25.0419 47.5912 25.0105 47.3854 24.9413 47.2123C24.8733 47.0418 24.7743 46.9021 24.6388 46.7853C24.4998 46.6657 24.3267 46.5713 24.124 46.5047C23.883 46.4249 23.6503 46.4026 23.4323 46.4381C23.2179 46.4731 23.0252 46.5672 22.8437 46.7258L22.6484 46.8964L22.5119 46.676C22.3664 46.4412 22.165 46.2839 21.8965 46.1954C21.7345 46.142 21.5722 46.124 21.4127 46.1435C21.2545 46.1621 21.1073 46.2196 20.9623 46.3195C20.812 46.4229 20.6686 46.5742 20.5362 46.7689C20.4003 46.9687 20.2803 47.2247 20.1797 47.5297L19.372 49.9831ZM23.6711 50.7414L21.9075 50.1608L22.6545 47.8919C22.7603 47.5706 22.9205 47.342 23.1306 47.2122C23.3531 47.0749 23.6059 47.0512 23.882 47.1422C24.1589 47.2333 24.3476 47.4027 24.4426 47.6458C24.5317 47.8735 24.5235 48.1517 24.4179 48.4725L23.6711 50.7414ZM22.4631 49.8804L23.3907 50.1858L24 48.335C24.0727 48.114 24.0837 47.9361 24.0328 47.8061C23.9866 47.6878 23.8949 47.6096 23.7445 47.5601C23.5937 47.5107 23.4715 47.519 23.3617 47.5865C23.2422 47.6604 23.1448 47.8094 23.0723 48.0295L22.4631 49.8804ZM21.4805 50.0203L20.0391 49.5457L20.6599 47.6595C20.7649 47.3403 20.9055 47.1183 21.0896 46.9808C21.2922 46.8291 21.5304 46.7923 21.7791 46.8738C22.0121 46.9506 22.1886 47.1125 22.3043 47.3552L22.3464 47.4437L22.3088 47.5342C22.2774 47.61 22.248 47.6887 22.2213 47.7704L21.4805 50.0203ZM20.5945 49.2653L21.2001 49.4647L21.8033 47.633C21.8221 47.5758 21.8419 47.5198 21.8628 47.4652C21.8054 47.378 21.7336 47.3222 21.6415 47.2918C21.53 47.2551 21.4406 47.2678 21.3532 47.333C21.2452 47.4137 21.1526 47.5699 21.0778 47.797L20.5945 49.2653Z" fill="#9BFFDB"/>
<path d="M21.79 42.8385L23.9014 38.9007L24.7237 39.3417L23.1154 42.3417L24.0384 42.8367L25.4628 40.1797L26.2349 40.5937L24.8106 43.2506L26.0975 43.9406L27.7392 40.8785L28.5587 41.3179L26.4143 45.3178L21.79 42.8385Z" fill="#9BFFDB"/>
<path d="M26.5042 45.6156L21.4922 42.9285L23.8114 38.6028L25.0215 39.2517L23.4132 42.2517L23.9484 42.5388L25.3728 39.8818L26.5327 40.5037L25.1084 43.1606L26.0075 43.6427L27.6492 40.5806L28.8565 41.2278L26.5042 45.6156ZM22.0878 42.7485L26.3243 45.02L28.2608 41.4078L27.8291 41.1763L26.1875 44.2383L24.5128 43.3406L25.937 40.6836L25.5527 40.4775L24.1283 43.1344L22.8175 42.4316L24.4259 39.4316L23.9914 39.1985L22.0878 42.7485Z" fill="#9BFFDB"/>
<path d="M27.2275 38.4727C26.9335 38.242 26.7028 37.9713 26.5355 37.6606C26.368 37.3501 26.2732 37.016 26.2511 36.6586C26.2285 36.301 26.2829 35.9284 26.4139 35.5402C26.545 35.1523 26.761 34.7664 27.0622 34.3826C27.3261 34.0464 27.6022 33.7645 27.8906 33.5369C28.1786 33.3093 28.4868 33.1296 28.8152 32.9977L29.1465 33.8805C29.0421 33.9156 28.9347 33.9654 28.8238 34.0306C28.7129 34.0959 28.6028 34.1716 28.4938 34.2581C28.3845 34.3446 28.2785 34.439 28.1752 34.5414C28.072 34.6439 27.9769 34.7506 27.8898 34.8617C27.6798 35.1292 27.5255 35.3936 27.4271 35.655C27.3286 35.9162 27.2824 36.1653 27.2888 36.4018C27.2948 36.6388 27.3509 36.8592 27.4569 37.0632C27.5627 37.2673 27.7144 37.4465 27.9115 37.6013C28.1156 37.7615 28.3336 37.87 28.5651 37.9267C28.7967 37.9832 29.0322 37.9867 29.2716 37.9372C29.5112 37.8875 29.749 37.7841 29.985 37.6263C30.2211 37.4689 30.4441 37.2565 30.6541 36.9886C30.7493 36.8673 30.8353 36.74 30.9117 36.6064C30.988 36.4727 31.0547 36.3381 31.1116 36.2022C31.1686 36.0662 31.2162 35.9292 31.2548 35.7916C31.293 35.6538 31.3219 35.5199 31.3412 35.3902L32.2777 35.5022C32.2452 35.8408 32.1539 36.1901 32.0034 36.5501C31.8531 36.9101 31.6474 37.2564 31.3862 37.5891C31.0532 38.0134 30.706 38.3426 30.3445 38.5766C29.9829 38.8106 29.6216 38.9593 29.2602 39.0227C28.8987 39.0862 28.5449 39.0694 28.1986 38.9726C27.8522 38.8756 27.5284 38.709 27.2275 38.4727Z" fill="#9BFFDB"/>
<path d="M28.8357 39.28C28.6004 39.2801 28.3676 39.2482 28.1396 39.1844C27.7667 39.0801 27.4142 38.8988 27.092 38.6457C26.7752 38.3973 26.5229 38.1009 26.3419 37.7648C26.1601 37.4276 26.0558 37.06 26.0317 36.6721C26.0074 36.2882 26.066 35.8836 26.2057 35.4698C26.3442 35.0597 26.5742 34.6482 26.8893 34.2466C27.1627 33.8983 27.4539 33.6014 27.7545 33.3641C28.0574 33.1247 28.3868 32.9327 28.7334 32.7935L28.9423 32.7094L29.4327 34.0165L29.2168 34.089C29.1268 34.1192 29.0321 34.1634 28.9356 34.2202C28.8331 34.2805 28.7306 34.3512 28.6307 34.4304C28.529 34.5109 28.428 34.6007 28.3304 34.6975C28.2344 34.7927 28.1446 34.8936 28.0631 34.9974C27.8677 35.2462 27.7231 35.4934 27.6331 35.7324C27.5452 35.9659 27.5034 36.1891 27.5089 36.3959C27.514 36.5981 27.5623 36.7884 27.6523 36.9617C27.743 37.1364 27.8759 37.2934 28.0476 37.4283C28.2259 37.5682 28.4177 37.664 28.6176 37.713C28.816 37.7612 29.0213 37.7641 29.2273 37.7217C29.4382 37.6779 29.6521 37.5842 29.8631 37.4434C30.079 37.2994 30.2868 37.1008 30.4813 36.8528C30.57 36.7396 30.6507 36.6198 30.721 36.4971C30.7928 36.3713 30.856 36.2433 30.9089 36.1171C30.9618 35.9906 31.0071 35.861 31.0431 35.7321C31.0788 35.6039 31.1059 35.4778 31.1238 35.3576L31.1553 35.1463L32.5174 35.3092L32.4969 35.5231C32.4624 35.8825 32.3648 36.2566 32.2066 36.6349C32.0495 37.0113 31.8317 37.3781 31.5595 37.7249C31.2131 38.1663 30.8446 38.5149 30.4642 38.7612C30.0795 39.0102 29.6873 39.1711 29.2984 39.2393C29.1436 39.2664 28.9892 39.28 28.8357 39.28ZM28.6912 33.2927C28.4586 33.4047 28.2362 33.5443 28.0272 33.7094C27.7537 33.9253 27.4874 34.1973 27.2355 34.5183C26.9513 34.8805 26.745 35.2479 26.6225 35.6105C26.5013 35.9698 26.4503 36.3178 26.4708 36.6447C26.4909 36.9687 26.5778 37.2752 26.7293 37.556C26.8814 37.8387 27.0948 38.0887 27.3635 38.2995C27.6401 38.5168 27.9411 38.672 28.2582 38.7606C28.5709 38.848 28.8956 38.8635 29.2223 38.8059C29.5529 38.748 29.8902 38.6086 30.2252 38.3919C30.5645 38.1721 30.897 37.8563 31.2133 37.4532C31.4611 37.1376 31.6586 36.8051 31.8005 36.4653C31.9102 36.2028 31.9872 35.9443 32.0303 35.6941L31.5206 35.6332C31.5051 35.7047 31.4873 35.7772 31.467 35.8504C31.4259 35.9971 31.3747 36.1438 31.3147 36.2871C31.255 36.4298 31.1837 36.5739 31.103 36.7153C31.022 36.8568 30.9294 36.9943 30.8274 37.1243C30.6043 37.4091 30.3619 37.6395 30.1073 37.8093C29.8494 37.9817 29.5832 38.0972 29.3165 38.1525C29.0456 38.2086 28.7753 38.2042 28.5132 38.1404C28.2519 38.0763 28.0039 37.9532 27.7758 37.7744C27.5543 37.6003 27.3813 37.3952 27.2617 37.1643C27.1407 36.9314 27.0759 36.6766 27.069 36.4074C27.062 36.1437 27.1133 35.8643 27.2214 35.5773C27.3272 35.2964 27.4939 35.0099 27.7169 34.7257C27.8096 34.6077 27.9117 34.4932 28.0205 34.3852C28.1298 34.2768 28.2431 34.176 28.3574 34.0855C28.473 33.9938 28.5925 33.9115 28.7124 33.841C28.7637 33.8108 28.815 33.7832 28.8659 33.7585L28.6912 33.2927Z" fill="#9BFFDB"/>
<path d="M31.8963 32.7986C31.6361 32.5001 31.4527 32.1789 31.346 31.8355C31.2397 31.4918 31.208 31.1447 31.251 30.7939C31.2942 30.4431 31.4118 30.0979 31.6041 29.7581C31.7963 29.4185 32.0611 29.1014 32.3986 28.8074C32.7343 28.5146 33.084 28.2962 33.4477 28.1514C33.8111 28.0065 34.1698 27.9367 34.5232 27.942C34.8766 27.9472 35.2162 28.0259 35.5421 28.1784C35.8677 28.3308 36.1608 28.5563 36.421 28.8549C36.6829 29.1553 36.8681 29.4785 36.9767 29.8247C37.0853 30.1708 37.1194 30.5202 37.0785 30.8738C37.0375 31.2271 36.9218 31.5751 36.7308 31.9182C36.54 32.261 36.2766 32.5788 35.9409 32.8715C35.6034 33.1656 35.2523 33.3834 34.8872 33.5248C34.5222 33.6665 34.162 33.7335 33.8063 33.7255C33.4507 33.7179 33.1091 33.6365 32.7809 33.4814C32.4529 33.3266 32.158 33.099 31.8963 32.7986ZM32.6985 32.0995C32.8765 32.3036 33.0734 32.4557 33.2894 32.5552C33.5054 32.655 33.7293 32.7056 33.9607 32.7071C34.1922 32.7089 34.4239 32.6631 34.6565 32.5705C34.8889 32.4778 35.1097 32.3403 35.3188 32.1579C35.528 31.9755 35.6945 31.7757 35.818 31.5582C35.9417 31.3405 36.0181 31.1175 36.0471 30.8887C36.0764 30.6597 36.0566 30.4312 35.9884 30.2029C35.9201 29.9746 35.7968 29.7583 35.6189 29.5542C35.441 29.35 35.2444 29.1992 35.029 29.1021C34.8135 29.0048 34.5919 28.9568 34.3643 28.9578C34.1366 28.9588 33.9079 29.0073 33.6786 29.1033C33.4491 29.1995 33.2298 29.3387 33.0206 29.5211C32.8114 29.7034 32.6434 29.9017 32.5169 30.1158C32.3904 30.3299 32.3108 30.5502 32.2778 30.7764C32.2448 31.0024 32.2623 31.2285 32.33 31.4544C32.3977 31.6804 32.5207 31.8953 32.6985 32.0995Z" fill="#9BFFDB"/>
<path d="M33.862 33.9461C33.8418 33.9461 33.8217 33.9458 33.8015 33.9454C33.4168 33.9371 33.0418 33.8479 32.687 33.6802C32.3329 33.5132 32.0111 33.2652 31.7306 32.943C31.4514 32.6228 31.2513 32.2721 31.136 31.9006C31.0209 31.5286 30.9861 31.1472 31.0327 30.7671C31.0793 30.3888 31.2072 30.013 31.4127 29.6496C31.6164 29.2895 31.8996 28.9503 32.2543 28.6415C32.6067 28.334 32.981 28.1003 33.3665 27.947C33.7551 27.7922 34.1449 27.7174 34.5265 27.7219C34.9099 27.7276 35.283 27.8141 35.6355 27.9791C35.9877 28.144 36.308 28.39 36.587 28.7104C36.8676 29.0322 37.0694 29.385 37.1867 29.7587C37.3043 30.1333 37.3413 30.5169 37.2972 30.8991C37.253 31.2796 37.1272 31.6585 36.9232 32.0251C36.7209 32.3885 36.4391 32.729 36.0856 33.0373C35.7302 33.347 35.3538 33.5801 34.9668 33.7299C34.597 33.8735 34.2256 33.9461 33.862 33.9461ZM34.4869 28.1616C34.1744 28.1616 33.8526 28.2268 33.5293 28.3557C33.19 28.4907 32.8584 28.6984 32.5434 28.9731C32.2263 29.2492 31.9748 29.5497 31.7957 29.8663C31.6187 30.1792 31.5089 30.5003 31.4694 30.8207C31.4305 31.1386 31.4597 31.4582 31.5563 31.7704C31.6534 32.0829 31.8235 32.3802 32.0622 32.6539C32.3027 32.9299 32.5761 33.1414 32.8749 33.2824C33.1735 33.4235 33.4885 33.4985 33.8111 33.5055C34.1383 33.512 34.4713 33.4502 34.8077 33.3197C35.1471 33.1882 35.4797 32.9816 35.7965 32.7056C36.1115 32.4309 36.3613 32.1299 36.5386 31.8111C36.7144 31.4953 36.8226 31.1714 36.86 30.8483C36.8972 30.5279 36.8657 30.2057 36.7669 29.8905C36.6679 29.5751 36.4958 29.2753 36.2553 28.9995C36.0167 28.7255 35.7453 28.5163 35.4488 28.3776C35.1532 28.2392 34.8407 28.1667 34.52 28.1618C34.509 28.1617 34.4979 28.1616 34.4869 28.1616ZM33.9742 32.9271C33.9691 32.9271 33.9641 32.9271 33.959 32.9269C33.6973 32.9253 33.4409 32.8674 33.1973 32.7548C32.9546 32.6431 32.7309 32.4712 32.5327 32.244C32.3347 32.0168 32.1957 31.7721 32.1193 31.5174C32.0426 31.2612 32.0226 31.0011 32.0602 30.7445C32.0973 30.4907 32.1872 30.2415 32.3276 30.0038C32.4655 29.7705 32.6501 29.5521 32.8761 29.3552C33.1022 29.1582 33.3436 29.0051 33.5937 28.9004C33.8487 28.7936 34.1075 28.739 34.3633 28.7377C34.3659 28.7377 34.3683 28.7377 34.3707 28.7377C34.6271 28.7377 34.8788 28.7928 35.1196 28.9016C35.3628 29.0111 35.5866 29.1821 35.7848 29.4097C35.9827 29.6366 36.1222 29.8823 36.1993 30.1397C36.2761 30.3971 36.2984 30.6584 36.2654 30.9165C36.233 31.1723 36.1468 31.4249 36.0095 31.6667C35.8744 31.9045 35.6907 32.1256 35.4635 32.3236C35.2367 32.5214 34.9927 32.6733 34.7381 32.7748C34.4845 32.8759 34.2275 32.9271 33.9742 32.9271ZM32.8644 31.9548C33.0214 32.1348 33.1954 32.2696 33.3815 32.3553C33.568 32.4414 33.7633 32.4857 33.9621 32.487C34.1635 32.4846 34.3695 32.4478 34.5752 32.3661C34.7834 32.2831 34.9849 32.1573 35.1742 31.9921C35.3641 31.8265 35.5163 31.644 35.6268 31.4495C35.7358 31.2577 35.8037 31.0598 35.829 30.8609C35.8541 30.664 35.8369 30.4637 35.7777 30.2658C35.7187 30.069 35.6096 29.8782 35.4531 29.6988C35.2968 29.5192 35.1238 29.386 34.9387 29.3027C34.7534 29.2187 34.5598 29.1674 34.3654 29.1776C34.1676 29.1786 33.9651 29.2218 33.7637 29.3061C33.5571 29.3928 33.3557 29.5209 33.1653 29.6868C32.9748 29.8529 32.8204 30.0349 32.7065 30.2277C32.5953 30.4158 32.5243 30.6112 32.4955 30.8082C32.4675 31.0007 32.4827 31.1969 32.5408 31.3912C32.5991 31.5855 32.7078 31.7751 32.8644 31.9548Z" fill="#9BFFDB"/>
<path d="M36.9873 25.2819L37.9149 24.7605L40.5145 25.4939L41.2391 22.8917L42.1667 22.3701L44.7381 26.9437L43.8105 27.4651L41.9612 24.1761L41.199 26.7113L38.6372 26.0452L40.4863 29.334L39.5587 29.8557L36.9873 25.2819Z" fill="#9BFFDB"/>
<path d="M39.4746 30.1552L36.6875 25.1979L37.8865 24.5239L40.3616 25.2223L41.0514 22.7446L42.2503 22.0705L45.0374 27.0276L43.7263 27.7647L42.0227 24.7348L41.3485 26.9775L39.0822 26.3882L40.7856 29.4179L39.4746 30.1552ZM37.2866 25.3658L39.6424 29.5561L40.1865 29.25L38.1917 25.702L41.0491 26.445L41.8992 23.6174L43.8942 27.1655L44.4383 26.8598L42.0825 22.6696L41.4263 23.0386L40.6669 25.7655L37.9429 24.9971L37.2866 25.3658Z" fill="#9BFFDB"/>
<path d="M44.96 21.2212L49.1978 19.8056L49.4934 20.6909L46.265 21.7691L46.5968 22.7627L49.456 21.8075L49.7335 22.6385L46.8744 23.5937L47.3369 24.9786L50.6325 23.878L50.927 24.7599L46.6222 26.1979L44.96 21.2212Z" fill="#9BFFDB"/>
<path d="M46.4832 26.4761L44.6816 21.0821L49.3368 19.5272L49.7718 20.8298L46.5434 21.908L46.7358 22.4842L49.595 21.5291L50.0119 22.7773L47.1527 23.7326L47.476 24.7002L50.7715 23.5995L51.2054 24.8988L46.4832 26.4761ZM45.2384 21.36L46.7612 25.9194L50.6487 24.6208L50.4936 24.1562L47.198 25.2569L46.596 23.4546L49.4552 22.4994L49.317 22.0858L46.4579 23.0409L45.9867 21.6301L49.2151 20.5518L49.0588 20.0839L45.2384 21.36Z" fill="#9BFFDB"/>
<path d="M58.4934 18.3126L61.2595 18.3286C61.6625 18.3309 62.0113 18.3767 62.3062 18.4656C62.6012 18.5546 62.8453 18.682 63.0391 18.8474C63.2327 19.0131 63.3765 19.2148 63.4704 19.4526C63.5641 19.6903 63.6101 19.9582 63.6084 20.2557C63.6067 20.5356 63.5582 20.7938 63.4627 21.0304C63.3675 21.267 63.2224 21.4716 63.0279 21.6439C62.8333 21.8163 62.5879 21.9501 62.2921 22.0458C61.9961 22.1414 61.6467 22.188 61.2438 22.1857L59.5351 22.1723L59.527 23.5656L58.4629 23.5592L58.4934 18.3126ZM61.2694 21.2628C61.4707 21.2639 61.647 21.2408 61.7983 21.1935C61.9498 21.1463 62.0767 21.0789 62.179 20.9911C62.2813 20.9032 62.358 20.7962 62.409 20.6701C62.4602 20.5439 62.4862 20.4036 62.487 20.2492C62.4889 19.9382 62.389 19.6954 62.1873 19.5207C61.9859 19.3462 61.6838 19.2575 61.281 19.2551L59.5521 19.2452L59.5405 21.2526L61.2694 21.2628Z" fill="#9BFFDB"/>
<path d="M59.7454 23.7868L58.2412 23.778L58.2745 18.0913L61.2606 18.1086C61.6822 18.1109 62.0552 18.1602 62.3692 18.2549C62.692 18.3522 62.9651 18.4953 63.1815 18.6801C63.4023 18.869 63.5683 19.1017 63.6746 19.3719C63.7785 19.6352 63.8301 19.9331 63.828 20.2571C63.8263 20.5632 63.7718 20.851 63.6666 21.1125C63.5589 21.38 63.3929 21.6142 63.1735 21.8085C62.9573 22 62.6836 22.1502 62.3595 22.2551C62.0426 22.3574 61.665 22.4156 61.242 22.4056L59.7534 22.394L59.7454 23.7868ZM58.6838 23.3405L59.3082 23.3442L59.3162 21.9506L61.245 21.9657C61.6191 21.9637 61.9518 21.9243 62.2241 21.8364C62.49 21.7504 62.7113 21.6302 62.8818 21.4791C63.0497 21.3305 63.1764 21.1519 63.2584 20.9482C63.3429 20.7383 63.3865 20.5049 63.3881 20.2545C63.3897 19.9866 63.3483 19.7441 63.2653 19.5333C63.1842 19.3279 63.0634 19.1581 62.8955 19.0146C62.7261 18.8697 62.5061 18.7557 62.2421 18.6762C61.9685 18.5936 61.6374 18.5507 61.2579 18.5485L58.7117 18.5339L58.6838 23.3405ZM61.2823 21.4829C61.2775 21.4829 61.2727 21.4829 61.2681 21.4828L59.3189 21.4713L59.3332 19.0239L61.2821 19.0351C61.7367 19.0378 62.0899 19.1453 62.3313 19.3545C62.5827 19.5723 62.7092 19.8737 62.7067 20.2505C62.7059 20.4322 62.674 20.6012 62.6125 20.753C62.5483 20.9113 62.4505 21.0476 62.3222 21.1579C62.1976 21.2648 62.0434 21.3474 61.8635 21.4035C61.6951 21.4562 61.4996 21.4829 61.2823 21.4829ZM61.2705 21.0429C61.4601 21.0404 61.6038 21.0237 61.7324 20.9835C61.8546 20.9454 61.9567 20.8917 62.0354 20.8241C62.1114 20.759 62.1667 20.6817 62.2048 20.5875C62.2454 20.4878 62.266 20.3736 62.2668 20.2479C62.2682 20.0021 62.1951 19.8187 62.0431 19.6869C61.8831 19.5485 61.6263 19.4772 61.2794 19.475L59.7704 19.4664L59.7615 21.0339L61.2705 21.0429Z" fill="#9BFFDB"/>
<path d="M66.2332 18.6404L70.6282 19.4446L70.4604 20.3625L67.112 19.7498L66.9235 20.7802L69.8887 21.3226L69.7311 22.1845L66.7658 21.642L66.5029 23.0784L69.9207 23.7036L69.7534 24.6184L65.2891 23.8016L66.2332 18.6404Z" fill="#9BFFDB"/>
<path d="M69.9303 24.8744L65.0332 23.9784L66.0567 18.3843L70.8842 19.2677L70.6371 20.6185L67.2888 20.0058L67.1795 20.6033L70.1449 21.1457L69.908 22.4404L66.9426 21.8979L66.7589 22.9015L70.1768 23.5267L69.9303 24.8744ZM65.5451 23.6247L69.5769 24.3623L69.665 23.8804L66.2471 23.2552L66.5892 21.386L69.5546 21.9284L69.633 21.4994L66.6676 20.957L66.9354 19.4937L70.2837 20.1064L70.3723 19.6214L66.4101 18.8964L65.5451 23.6247Z" fill="#9BFFDB"/>
<path d="M74.9311 20.786L75.9884 21.1785L76.5413 26.9806L75.4934 26.5915L75.4075 25.6178L72.5341 24.5513L71.8459 25.2374L70.7949 24.8472L74.9311 20.786ZM75.3189 24.6504L75.0847 22.0211L73.2198 23.8712L75.3189 24.6504Z" fill="#9BFFDB"/>
<path d="M76.7935 27.3089L75.2864 26.7492L75.2004 25.7757L72.5895 24.8065L71.9015 25.4927L70.3936 24.9329L74.8765 20.5311L76.1943 21.0203L76.7935 27.3089ZM75.7005 26.4337L76.2891 26.6523L75.7824 21.3367L74.9856 21.0408L71.196 24.7615L71.7903 24.9822L72.4783 24.296L75.6145 25.4599L75.7005 26.4337ZM75.5689 24.9779L72.8205 23.9575L75.2622 21.535L75.5689 24.9779ZM73.6192 23.7848L75.0688 24.3229L74.9072 22.5072L73.6192 23.7848Z" fill="#9BFFDB"/>
<path d="M78.832 25.179C79.0228 24.858 79.2614 24.5943 79.548 24.3883C79.8345 24.1824 80.1536 24.0453 80.5053 23.9772C80.8569 23.9089 81.2334 23.9148 81.6351 23.9948C82.0367 24.0747 82.4472 24.2394 82.8665 24.4887C83.2339 24.707 83.5491 24.9446 83.812 25.2011C84.0748 25.4575 84.2927 25.7402 84.4659 26.0487L83.6328 26.4908C83.5849 26.392 83.5214 26.2917 83.4424 26.1901C83.3636 26.0885 83.2743 25.9893 83.1744 25.8922C83.0745 25.795 82.9672 25.702 82.8523 25.6127C82.7374 25.5236 82.6193 25.4429 82.4982 25.371C82.2057 25.1972 81.9236 25.0782 81.6519 25.0143C81.3801 24.9502 81.1272 24.9367 80.8932 24.9732C80.6593 25.0098 80.4478 25.0939 80.2593 25.2251C80.0706 25.3564 79.9122 25.5299 79.7841 25.7451C79.6514 25.9684 79.5719 26.1983 79.5456 26.4353C79.5193 26.6722 79.5461 26.9062 79.6263 27.1375C79.7062 27.3684 79.8395 27.5909 80.026 27.8047C80.2127 28.0185 80.4522 28.2124 80.7447 28.3862C80.8775 28.4652 81.0148 28.5337 81.157 28.5922C81.2994 28.651 81.4416 28.6996 81.5838 28.7386C81.7258 28.7775 81.8676 28.8072 82.0092 28.8275C82.1508 28.8479 82.2871 28.8593 82.4184 28.8619L82.428 29.805C82.088 29.8163 81.7297 29.7705 81.3534 29.6678C80.977 29.5652 80.6072 29.4057 80.2436 29.1896C79.7799 28.914 79.4089 28.6118 79.1303 28.2835C78.8516 27.9552 78.6576 27.6159 78.5482 27.2657C78.4386 26.9156 78.4099 26.5625 78.4612 26.2065C78.5127 25.8506 78.6363 25.508 78.832 25.179Z" fill="#9BFFDB"/>
<path d="M82.3282 30.0267C81.9995 30.0267 81.6525 29.9774 81.2953 29.88C80.9024 29.7729 80.5109 29.6042 80.1314 29.3788C79.6494 29.0922 79.2562 28.7717 78.9627 28.4258C78.6659 28.0762 78.4559 27.7078 78.3383 27.3312C78.2196 26.9519 78.1876 26.5628 78.2435 26.1751C78.2991 25.7917 78.4333 25.4188 78.6431 25.0666C78.8485 24.7208 79.1098 24.4324 79.4197 24.2096C79.731 23.9859 80.0823 23.835 80.4634 23.7612C80.8415 23.6881 81.2502 23.694 81.678 23.779C82.1021 23.8633 82.5398 24.0386 82.9792 24.2996C83.3592 24.5255 83.6911 24.7758 83.9656 25.0435C84.2419 25.313 84.4748 25.615 84.6576 25.941L84.768 26.1375L83.5343 26.7921L83.4349 26.5865C83.3941 26.5024 83.3382 26.4145 83.2687 26.3252C83.197 26.2324 83.1137 26.14 83.0211 26.0499C82.9279 25.9591 82.8256 25.8705 82.7173 25.7865C82.6099 25.7031 82.4985 25.6269 82.3859 25.5602C82.1139 25.3984 81.8499 25.2868 81.6015 25.2284C81.3593 25.1713 81.1326 25.1583 80.9271 25.1905C80.7276 25.2218 80.545 25.2942 80.3849 25.4056C80.2233 25.5183 80.0847 25.6703 79.9732 25.8576C79.8572 26.0526 79.7871 26.2552 79.7643 26.4596C79.7417 26.6626 79.7654 26.8665 79.8341 27.0654C79.9045 27.2687 80.0251 27.4688 80.1918 27.6599C80.3624 27.8553 80.5864 28.036 80.8573 28.1971C80.979 28.2695 81.1082 28.3341 81.2408 28.3888C81.3729 28.4433 81.5078 28.4896 81.642 28.5264C81.7747 28.5628 81.909 28.5908 82.0403 28.6096C82.1724 28.6287 82.3011 28.6394 82.4227 28.6419L82.6362 28.646L82.6502 30.0177L82.4354 30.0249C82.3999 30.026 82.3642 30.0267 82.3282 30.0267ZM81.0066 24.1503C80.8479 24.1503 80.6943 24.1645 80.5471 24.1931C80.2289 24.2549 79.9359 24.3806 79.6765 24.567C79.416 24.7541 79.1955 24.9978 79.0212 25.2914C78.8413 25.5936 78.7261 25.9123 78.6791 26.238C78.6326 26.56 78.6592 26.8836 78.7583 27.2C78.8582 27.5201 79.0397 27.8367 79.2981 28.1411C79.5602 28.4498 79.916 28.7389 80.3562 29.0005C80.7013 29.2057 81.0563 29.3588 81.4111 29.4555C81.6861 29.5305 81.9525 29.5735 82.2057 29.5841L82.2006 29.0706C82.1273 29.0644 82.0529 29.056 81.9777 29.0452C81.8284 29.0237 81.6761 28.9919 81.5255 28.9507C81.374 28.9091 81.2218 28.857 81.073 28.7955C80.9207 28.7328 80.7725 28.6586 80.6323 28.5753C80.3213 28.3904 80.0616 28.1798 79.8604 27.9494C79.6561 27.7154 79.5076 27.4665 79.4184 27.2094C79.3279 26.9481 79.2973 26.6795 79.3271 26.411C79.3566 26.144 79.4469 25.8822 79.5951 25.6327C79.7388 25.3911 79.9201 25.1932 80.1336 25.0446C80.3489 24.8946 80.5931 24.7975 80.8592 24.7557C81.1208 24.7153 81.4044 24.7301 81.7025 24.8001C81.9944 24.8688 82.3 24.9972 82.6107 25.1819C82.7385 25.2577 82.8653 25.3441 82.9872 25.4388C83.1083 25.5331 83.223 25.6324 83.3278 25.7345C83.4352 25.8388 83.5324 25.9468 83.6165 26.0554C83.653 26.1024 83.6868 26.1495 83.7177 26.1967L84.1571 25.9634C84.0161 25.7471 83.8488 25.5444 83.6583 25.3585C83.4086 25.1149 83.1046 24.886 82.7541 24.6777C82.3583 24.4423 81.9673 24.2851 81.5921 24.2106C81.3904 24.1704 81.1949 24.1503 81.0066 24.1503Z" fill="#9BFFDB"/>
<path d="M86.9559 27.322L90.3451 30.2334L89.7372 30.9413L87.1551 28.7233L86.4725 29.5177L88.7593 31.482L88.1883 32.1467L85.9016 30.1825L84.9501 31.29L87.5857 33.5541L86.9797 34.2593L83.5371 31.302L86.9559 27.322Z" fill="#9BFFDB"/>
<path d="M87.0037 34.5694L83.2275 31.3254L86.9331 27.0117L90.656 30.2098L89.7615 31.2514L87.1793 29.0334L86.7835 29.4941L89.0702 31.4585L88.2127 32.4568L85.926 30.4926L85.261 31.2665L87.8966 33.5305L87.0037 34.5694ZM83.8479 31.2784L86.957 33.9491L87.2763 33.5775L84.6407 31.3135L85.8787 29.8723L88.1655 31.8365L88.4499 31.5055L86.1631 29.5411L87.1321 28.4131L89.7142 30.6311L90.0357 30.2568L86.9803 27.6321L83.8479 31.2784Z" fill="#9BFFDB"/>
</svg>
